<svg width="126" height="24" viewBox="0 0 126 24" fill="none" xmlns="http://www.w3.org/2000/svg">
<path d="M33.8839 5.9662C33.4525 5.9662 33.0783 5.82126 32.7615 5.53138C32.4446 5.2415 32.2862 4.88757 32.2862 4.4696C32.2862 4.05163 32.4446 3.6977 32.7615 3.40782C33.0783 3.11793 33.4525 2.97299 33.8839 2.97299C34.3154 2.97299 34.6862 3.11793 34.9963 3.40782C35.3131 3.6977 35.4716 4.05163 35.4716 4.4696C35.4716 4.88757 35.3131 5.2415 34.9963 5.53138C34.6862 5.82126 34.3154 5.9662 33.8839 5.9662ZM34.7435 13.3784C34.7435 13.7627 34.7536 14.3796 34.7738 15.229C34.8008 16.0784 34.8143 16.6952 34.8143 17.0795C34.8143 17.4705 34.6828 17.7941 34.4199 18.0503C34.157 18.2997 33.8233 18.4244 33.4188 18.4244C33.0143 18.4244 32.6806 18.2997 32.4177 18.0503C32.1548 17.7941 32.0233 17.4705 32.0233 17.0795C32.0233 16.6952 32.0098 16.0784 31.9829 15.229C31.9626 14.3796 31.9525 13.7627 31.9525 13.3784C31.9525 12.7785 31.9862 12.0268 32.0536 11.1234C32.1211 10.2201 32.1548 9.46839 32.1548 8.8684C32.1548 8.4774 32.2862 8.15718 32.5491 7.90774C32.8121 7.65157 33.1458 7.52348 33.5502 7.52348C33.9547 7.52348 34.2884 7.65157 34.5513 7.90774C34.8143 8.15718 34.9457 8.4774 34.9457 8.8684C34.9457 9.46839 34.912 10.2201 34.8446 11.1234C34.7772 12.0268 34.7435 12.7785 34.7435 13.3784Z" fill="#0B4A94"/>
<path d="M42.0546 18.7177C41.4748 18.7177 40.8647 18.6503 40.2243 18.5154L40.2142 22.6412C40.2142 23.0322 40.0827 23.3558 39.8198 23.612C39.5569 23.8682 39.2232 23.9963 38.8187 23.9963C38.4142 23.9963 38.0805 23.8682 37.8176 23.612C37.5547 23.3558 37.4232 23.0322 37.4232 22.6412C37.4232 22.3244 37.43 21.0671 37.4434 18.8694C37.4569 17.2379 37.4569 15.9065 37.4434 14.875C37.4232 13.4189 37.376 12.165 37.3019 11.1133C37.2007 9.6639 37.1502 8.99986 37.1502 9.12121C37.1502 8.56167 37.2749 8.08302 37.5243 7.68528C37.8142 7.2336 38.2052 7.00776 38.6974 7.00776C39.0749 7.00776 39.3917 7.13585 39.6479 7.39202C39.9041 7.6482 40.0322 7.95494 40.0322 8.31223L40.022 8.41335C40.4737 8.15718 40.9254 7.96842 41.3771 7.84707C41.8355 7.71898 42.2939 7.65494 42.7523 7.65494C44.3029 7.65494 45.4354 8.31223 46.15 9.62682C46.6826 10.6178 46.9489 11.9021 46.9489 13.4796C46.9489 14.9559 46.5276 16.1795 45.6849 17.1503C44.7815 18.1952 43.5714 18.7177 42.0546 18.7177ZM42.7523 10.3549C42.3276 10.3549 41.8962 10.456 41.458 10.6583C41.0198 10.8538 40.5782 11.1504 40.1333 11.5481C40.2142 12.9369 40.2546 14.329 40.2546 15.7245C40.8546 15.92 41.4546 16.0177 42.0546 16.0177C42.749 16.0177 43.2815 15.7717 43.6523 15.2795C43.9894 14.8346 44.1579 14.2346 44.1579 13.4796C44.1579 12.5695 44.1175 11.9391 44.0366 11.5886C43.8411 10.7661 43.413 10.3549 42.7523 10.3549Z" fill="#0B4A94"/>
<path d="M53.1376 18.7177C52.5578 18.7177 51.9477 18.6503 51.3073 18.5154L51.2971 22.6412C51.2971 23.0322 51.1657 23.3558 50.9028 23.612C50.6399 23.8682 50.3062 23.9963 49.9017 23.9963C49.4972 23.9963 49.1635 23.8682 48.9006 23.612C48.6376 23.3558 48.5062 23.0322 48.5062 22.6412C48.5062 22.3244 48.5129 21.0671 48.5264 18.8694C48.5399 17.2379 48.5399 15.9065 48.5264 14.875C48.5062 13.4189 48.459 12.165 48.3848 11.1133C48.2837 9.6639 48.2332 8.99986 48.2332 9.12121C48.2332 8.56167 48.3579 8.08302 48.6073 7.68528C48.8972 7.2336 49.2882 7.00776 49.7803 7.00776C50.1578 7.00776 50.4747 7.13585 50.7309 7.39202C50.987 7.6482 51.1151 7.95494 51.1151 8.31223L51.105 8.41335C51.5567 8.15718 52.0084 7.96842 52.4601 7.84707C52.9185 7.71898 53.3769 7.65494 53.8353 7.65494C55.3858 7.65494 56.5184 8.31223 57.233 9.62682C57.7656 10.6178 58.0319 11.9021 58.0319 13.4796C58.0319 14.9559 57.6105 16.1795 56.7678 17.1503C55.8645 18.1952 54.6544 18.7177 53.1376 18.7177ZM53.8353 10.3549C53.4106 10.3549 52.9791 10.456 52.5409 10.6583C52.1028 10.8538 51.6612 11.1504 51.2162 11.5481C51.2971 12.9369 51.3376 14.329 51.3376 15.7245C51.9376 15.92 52.5376 16.0177 53.1376 16.0177C53.8319 16.0177 54.3645 15.7717 54.7353 15.2795C55.0724 14.8346 55.2409 14.2346 55.2409 13.4796C55.2409 12.5695 55.2005 11.9391 55.1196 11.5886C54.9241 10.7661 54.496 10.3549 53.8353 10.3549Z" fill="#0B4A94"/>
<path d="M63.7149 18.7177C62.4678 18.7177 61.3959 18.2896 60.4992 17.4334C59.515 16.4964 58.9993 15.2458 58.9521 13.6818C58.9049 12.1919 59.3127 10.8639 60.1757 9.6976C61.2004 8.32234 62.6262 7.63472 64.4531 7.63472C65.8014 7.63472 66.8733 8.17403 67.6688 9.25267C68.3834 10.2234 68.7407 11.4268 68.7407 12.8627C68.7407 14.4267 68.3227 15.7616 67.4868 16.8672C66.5497 18.1008 65.2924 18.7177 63.7149 18.7177ZM64.3217 10.3043C63.4925 10.2976 62.8385 10.6751 62.3599 11.4369C61.9554 12.0773 61.7532 12.8256 61.7532 13.6818C61.7532 14.4908 61.9824 15.111 62.4408 15.5425C62.8048 15.8863 63.2295 16.0582 63.7149 16.0582C64.3014 16.0582 64.8104 15.8593 65.2419 15.4616C65.734 14.9964 65.9969 14.3661 66.0306 13.5706C66.1183 11.3998 65.5486 10.3111 64.3217 10.3043Z" fill="#0B4A94"/>
<path d="M81.1524 10.7189C80.485 10.7189 80.0838 10.4391 79.949 9.87961C79.6794 9.83242 79.403 9.80882 79.1198 9.80882C77.4951 9.80882 76.6828 10.0313 76.6828 10.4762C76.6828 10.7391 77.1715 11.0931 78.149 11.538C79.4839 12.1515 80.3872 12.6301 80.8591 12.9739C81.8366 13.6818 82.3254 14.4807 82.3254 15.3705C82.3254 16.5301 81.7861 17.4098 80.7074 18.0098C79.8378 18.4885 78.7693 18.7278 77.5019 18.7278C76.6052 18.7278 75.7862 18.5896 75.0446 18.3132C74.0334 17.9357 73.5278 17.3795 73.5278 16.6447C73.5278 15.9705 73.9289 15.6334 74.7311 15.6334C75.0412 15.6334 75.4895 15.7312 76.076 15.9267C76.6626 16.1222 77.1142 16.22 77.4311 16.22C78.7996 16.22 79.4872 15.9436 79.494 15.3908C79.494 15.0469 79.0187 14.666 78.0681 14.2481C76.6794 13.6346 75.7895 13.193 75.3985 12.9234C74.448 12.256 73.9727 11.4436 73.9727 10.4863C73.9727 9.1313 74.6907 8.21783 76.1266 7.74593C76.9693 7.46953 78.2502 7.33133 79.9692 7.33133C80.6434 7.33133 81.1423 7.41897 81.4658 7.59425C81.9108 7.8302 82.1333 8.26503 82.1333 8.89872C82.1333 10.1122 81.8063 10.7189 81.1524 10.7189Z" fill="#0B4A94"/>
<path d="M91.2646 9.98073C91.123 9.98073 90.9545 9.97736 90.759 9.97062C90.5702 9.95713 90.405 9.95039 90.2635 9.95039C89.9871 9.95039 89.6668 9.97736 89.3028 10.0313C89.4241 12.7548 89.4848 14.5346 89.4848 15.3705C89.4848 15.4582 89.4882 15.6233 89.4949 15.866C89.5017 16.102 89.505 16.2941 89.505 16.4424C89.505 17.993 89.0163 18.7682 88.0388 18.7682C87.668 18.7682 87.3478 18.6536 87.0781 18.4244C86.7815 18.1817 86.6332 17.8784 86.6332 17.5143C86.6332 17.2716 86.6433 16.9076 86.6635 16.4222C86.6837 15.9368 86.6939 15.5728 86.6939 15.3301C86.6939 14.5144 86.6332 12.7683 86.5118 10.092C86.0939 10.0717 85.4602 10.0178 84.6107 9.93017C83.7681 9.83579 83.3467 9.39759 83.3467 8.61558C83.3467 8.23806 83.4748 7.91784 83.731 7.65492C83.9872 7.392 84.3175 7.26055 84.722 7.26055C84.9714 7.26055 85.5444 7.301 86.441 7.38189C86.4343 7.16617 86.4175 6.80887 86.3905 6.31C86.3635 5.87855 86.35 5.54484 86.35 5.30889C86.35 4.93137 86.4882 4.61789 86.7646 4.36846C87.041 4.11902 87.3747 3.99431 87.7657 3.99431C88.7635 3.99431 89.2624 4.83362 89.2624 6.51224L89.2421 7.34144C89.6601 7.28077 90.0005 7.25043 90.2635 7.25043C91.0387 7.25043 91.5679 7.301 91.8511 7.40212C92.3904 7.59088 92.66 8.00211 92.66 8.63581C92.66 9.02007 92.5286 9.34029 92.2657 9.59646C92.0028 9.85264 91.6691 9.98073 91.2646 9.98073Z" fill="#0B4A94"/>
<path d="M102.621 18.7885C102.31 18.7885 101.818 18.4514 101.144 17.7772C100.524 18.0739 99.9779 18.2963 99.506 18.4446C99.0341 18.5997 98.633 18.6772 98.3027 18.6772C96.678 18.6772 95.4578 18.2424 94.642 17.3727C93.8331 16.5031 93.4286 15.202 93.4286 13.4694C93.4286 11.8447 94.0286 10.456 95.2285 9.30321C96.4285 8.14368 97.8645 7.56391 99.5363 7.56391C100.177 7.56391 100.918 7.74593 101.761 8.10997C102.779 8.54817 103.288 9.05715 103.288 9.63691C103.288 9.87961 103.21 10.092 103.055 10.274C102.988 10.5436 102.934 10.8841 102.894 11.2953C102.86 11.6998 102.843 12.1751 102.843 12.7211C102.843 14.0088 102.934 14.9357 103.116 15.502C103.136 15.5627 103.291 15.9132 103.581 16.5537C103.844 17.1334 103.976 17.4638 103.976 17.5447C103.976 17.9019 103.837 18.1986 103.561 18.4345C103.291 18.6705 102.978 18.7885 102.621 18.7885ZM100.113 11.8515C100.113 11.6358 100.126 11.3897 100.153 11.1133C100.187 10.8302 100.234 10.5167 100.295 10.1729C100.16 10.1054 100.039 10.0583 99.9307 10.0313C99.8296 9.99758 99.742 9.98073 99.6678 9.98073C98.751 9.98073 97.9487 10.3414 97.2611 11.0627C96.5735 11.7773 96.2297 12.6065 96.2297 13.5503C96.2297 14.4537 96.3915 15.1346 96.715 15.593C97.0386 16.0447 97.524 16.2705 98.1712 16.2705C98.5892 16.2705 98.9835 16.2031 99.3543 16.0683C99.7318 15.9267 100.086 15.7211 100.416 15.4514C100.214 13.847 100.113 12.647 100.113 11.8515Z" fill="#0B4A94"/>
<path d="M110.053 18.7581C108.57 18.7581 107.326 18.3368 106.322 17.4941C105.263 16.6042 104.734 15.4312 104.734 13.975C104.734 12.6335 105.209 11.2481 106.16 9.81893C107.238 8.1875 108.492 7.37178 109.922 7.37178C110.623 7.37178 111.442 7.56054 112.379 7.93806C113.518 8.40322 114.088 8.93917 114.088 9.5459C114.088 9.87624 113.973 10.1695 113.744 10.4257C113.501 10.7021 113.188 10.8403 112.804 10.8403C112.514 10.8403 112.163 10.6852 111.752 10.3751C111.347 10.0583 110.737 9.89983 109.922 9.89983C109.402 9.89983 108.84 10.4088 108.233 11.4268C107.653 12.411 107.363 13.2605 107.363 13.975C107.363 14.6829 107.619 15.2391 108.132 15.6436C108.617 16.0278 109.258 16.22 110.053 16.22C110.505 16.22 111.058 16.048 111.711 15.7042C112.365 15.3604 112.78 15.1885 112.955 15.1885C113.319 15.1885 113.629 15.32 113.886 15.5829C114.148 15.8458 114.28 16.1458 114.28 16.4829C114.28 17.0087 113.707 17.5345 112.561 18.0604C111.536 18.5255 110.7 18.7581 110.053 18.7581Z" fill="#0B4A94"/>
<path d="M124.544 18.5356C124.011 18.5356 123.607 18.2795 123.33 17.7671C123 17.1536 122.505 16.4289 121.844 15.593C120.819 14.2919 120.276 13.6009 120.216 13.52C119.676 13.9177 119.232 14.2211 118.881 14.4301C118.814 15.3672 118.78 16.2638 118.78 17.1199C118.78 17.5109 118.648 17.8345 118.385 18.0907C118.123 18.3469 117.789 18.475 117.384 18.475C116.434 18.475 115.959 17.9087 115.959 16.7761C115.959 16.2435 115.996 15.4481 116.07 14.3896C116.151 13.3245 116.191 12.5256 116.191 11.9931C116.191 11.0155 116.205 9.89983 116.232 8.64592C116.265 7.38526 116.282 6.27292 116.282 5.30889C116.282 5.01901 116.265 4.67857 116.232 4.28756C116.205 3.88981 116.191 3.546 116.191 3.25612C116.191 2.86511 116.323 2.54489 116.586 2.29546C116.848 2.03928 117.182 1.91119 117.587 1.91119C117.991 1.91119 118.325 2.03928 118.588 2.29546C118.851 2.54489 118.982 2.86511 118.982 3.25612C118.982 3.55274 118.999 3.9033 119.033 4.30778C119.066 4.71227 119.083 5.06283 119.083 5.35945C119.083 6.16169 119.063 7.11223 119.023 8.21109C118.982 9.26276 118.965 10.1998 118.972 11.0223C119.889 10.3144 121.284 9.02681 123.158 7.15942C123.455 6.8628 123.792 6.71449 124.17 6.71449C124.547 6.71449 124.881 6.85269 125.171 7.12909C125.461 7.40549 125.606 7.72571 125.606 8.08975C125.606 8.39985 125.474 8.69985 125.211 8.98973C124.416 9.87961 123.469 10.8099 122.37 11.7807L124.473 14.4908C125.491 15.8458 126 16.7492 126 17.2008C126 17.5716 125.852 17.8851 125.555 18.1413C125.258 18.4042 124.921 18.5356 124.544 18.5356Z" fill="#0B4A94"/>
<path d="M9.40178 6.41942H5.07562C4.38302 6.41942 3.81964 5.85604 3.81964 5.16344C3.81964 4.47085 4.38302 3.90746 5.07562 3.90746H11.2108C11.5984 3.90746 11.9086 3.59735 11.9086 3.2097C11.9086 2.82205 11.5984 2.51193 11.2108 2.51193H8.69884C8.00624 2.51193 7.44286 1.94855 7.44286 1.25595C7.44286 0.563352 8.00624 -3.05176e-05 8.69884 -3.05176e-05H12.0585C13.0405 -3.05176e-05 13.9915 0.351438 14.7462 0.987181L27.0424 11.4072C27.3266 11.6449 27.3215 12.0791 27.0372 12.3168L14.7358 22.4836C13.9915 23.0986 13.056 23.4346 12.0895 23.4346H7.02937C6.33677 23.4346 5.77339 22.8712 5.77339 22.1786C5.77339 21.486 6.33677 20.9226 7.02937 20.9226H11.0764C11.5364 20.9226 11.9137 20.5505 11.9137 20.0853C11.9137 19.6253 11.5416 19.248 11.0764 19.248H8.56446C7.94939 19.248 7.44803 18.7466 7.44803 18.1316C7.44803 17.5165 7.94939 17.0151 8.56446 17.0151H12.4719C13.087 17.0151 13.5884 16.5138 13.5884 15.8987C13.5884 15.2836 13.087 14.7823 12.4719 14.7823H11.3555C10.7405 14.7823 10.2391 14.2809 10.2391 13.6659C10.2391 13.0508 10.7405 12.5494 11.3555 12.5494H14.1466C14.6066 12.5494 14.9839 12.1773 14.9839 11.7121C14.9839 11.2469 14.6118 10.8748 14.1466 10.8748H7.4532C6.83813 10.8748 6.33677 10.3734 6.33677 9.75837C6.33677 9.1433 6.83813 8.64194 7.4532 8.64194H9.40694C10.022 8.64194 10.5234 8.14058 10.5234 7.52551C10.5182 6.92078 10.022 6.41942 9.40178 6.41942Z" fill="#0B4A94"/>
<path d="M1.7315 6.34189C2.42516 6.34189 2.98749 5.77956 2.98749 5.08591C2.98749 4.39225 2.42516 3.82993 1.7315 3.82993C1.03785 3.82993 0.475525 4.39225 0.475525 5.08591C0.475525 5.77956 1.03785 6.34189 1.7315 6.34189Z" fill="#0B4A94"/>
<path d="M5.08075 19.2532C5.77441 19.2532 6.33673 18.6909 6.33673 17.9972C6.33673 17.3036 5.77441 16.7412 5.08075 16.7412C4.38709 16.7412 3.82477 17.3036 3.82477 17.9972C3.82477 18.6909 4.38709 19.2532 5.08075 19.2532Z" fill="#0B4A94"/>
<path d="M1.11643 8.6109H4.46571C5.08078 8.6109 5.58213 9.11226 5.58213 9.72733C5.58213 10.3424 5.08078 10.8438 4.46571 10.8438H1.11643C0.501359 10.8438 0 10.3424 0 9.72733C0 9.11226 0.49619 8.6109 1.11643 8.6109Z" fill="#0B4A94"/>
<path d="M4.38297 12.5546H8.29046C8.90553 12.5546 9.40689 13.056 9.40689 13.6711C9.40689 14.2861 8.90553 14.7875 8.29046 14.7875H4.38297C3.7679 14.7875 3.26654 14.2861 3.26654 13.6711C3.26654 13.056 3.7679 12.5546 4.38297 12.5546Z" fill="#0B4A94"/>
</svg>
