<svg width="36" height="36" viewBox="0 0 36 36" fill="none" xmlns="http://www.w3.org/2000/svg">
<rect width="36" height="36" rx="7" fill="#E4ECF3"/>
<path d="M8 9.993C8.00183 9.73038 8.1069 9.47902 8.29251 9.29322C8.47813 9.10742 8.72938 9.00209 8.992 9H27.008C27.556 9 28 9.445 28 9.993V26.007C27.9982 26.2696 27.8931 26.521 27.7075 26.7068C27.5219 26.8926 27.2706 26.9979 27.008 27H8.992C8.72881 26.9997 8.4765 26.895 8.29049 26.7088C8.10448 26.5226 8 26.2702 8 26.007V9.993ZM12 21V23H24V21H12ZM12 13V19H18V13H12ZM20 13V15H24V13H20ZM20 17V19H24V17H20Z" fill="#003366"/>
</svg>
