<svg width="36" height="36" viewBox="0 0 36 36" fill="none" xmlns="http://www.w3.org/2000/svg">
<rect width="36" height="36" rx="7" fill="#E4ECF3"/>
<path fill-rule="evenodd" clip-rule="evenodd" d="M9 9C8.44772 9 8 9.44772 8 10V26C8 26.5523 8.44772 27 9 27H27C27.5523 27 28 26.5523 28 26V10C28 9.44772 27.5523 9 27 9H9ZM24 24V22.8H12V24H24ZM14.4 18H13.2V22.2H14.4V18ZM17.4 18H16.2V22.2H17.4V18ZM19.8 18H18.6V22.2H19.8V18ZM22.8 18H21.6V22.2H22.8V18ZM18 12L12 15V17.4H24V15L18 12ZM18.4243 15.4243C18.3117 15.5368 18.1591 15.6 18 15.6C17.8409 15.6 17.6883 15.5368 17.5757 15.4243C17.4632 15.3117 17.4 15.1591 17.4 15C17.4 14.8409 17.4632 14.6883 17.5757 14.5757C17.6883 14.4632 17.8409 14.4 18 14.4C18.1591 14.4 18.3117 14.4632 18.4243 14.5757C18.5368 14.6883 18.6 14.8409 18.6 15C18.6 15.1591 18.5368 15.3117 18.4243 15.4243Z" fill="#003366"/>
</svg>
