<svg width="111" height="89" viewBox="0 0 111 89" fill="none" xmlns="http://www.w3.org/2000/svg">
<g style="mix-blend-mode:multiply" opacity="0.6">
<path d="M64.7584 81.3294C52.7254 81.3294 42.9814 77.6228 42.9814 73.0509C42.9814 68.4789 52.7355 64.7774 64.7584 64.7774C76.7813 64.7774 86.5354 68.484 86.5354 73.0509C86.5354 77.6178 76.7915 81.3294 64.7584 81.3294Z" fill="#CCCCCC"/>
</g>
<g style="mix-blend-mode:multiply" opacity="0.6">
<path d="M87.6188 56.1186C75.5908 56.1186 65.8418 52.4121 65.8418 47.8401C65.8418 43.2682 75.5959 39.5667 87.6188 39.5667C99.6417 39.5667 109.396 43.2732 109.396 47.8401C109.396 52.407 99.6518 56.1186 87.6188 56.1186Z" fill="#CCCCCC"/>
</g>
<g style="mix-blend-mode:multiply" opacity="0.6">
<path d="M84.9549 72.4206C72.9319 72.0204 63.0564 75.3968 62.8994 79.9637C62.7424 84.5306 72.3647 88.5623 84.3927 88.9675C96.4207 89.3727 106.291 85.9913 106.443 81.4243C106.595 76.8574 96.9676 72.8257 84.9549 72.4206Z" fill="#CCCCCC"/>
</g>
<g style="mix-blend-mode:multiply" opacity="0.6">
<path d="M23.3564 58.7398C35.3793 58.3346 45.2549 61.7111 45.4119 66.283C45.5689 70.8549 35.9465 74.8766 23.9236 75.2868C11.9007 75.6969 2.0251 72.3105 1.86811 67.7436C1.71111 63.1767 11.3335 59.14 23.3564 58.7398Z" fill="#CCCCCC"/>
</g>
<path d="M13.7803 61.1754C13.7803 65.7424 23.5343 69.4489 35.5572 69.4489C47.5802 69.4489 57.3342 65.7424 57.3342 61.1754V57.2638H13.7803V61.1754Z" fill="#FF931E"/>
<path d="M33.4912 59.2747V69.409C34.1749 69.434 34.8687 69.449 35.5676 69.449V59.2747H33.4912Z" fill="#D17918"/>
<path d="M29.293 59.2747V69.0988C30.4173 69.2289 31.5821 69.3239 32.7773 69.3789V59.2747H29.293Z" fill="#D17918"/>
<path d="M28.4316 68.9941V57.2842H13.7803V61.1758C13.7803 64.7973 19.9031 67.8686 28.4316 68.9941Z" fill="#D17918"/>
<path d="M43.3262 59.2747V68.9088L44.0352 68.7987V59.2947L43.3262 59.2747Z" fill="#D17918"/>
<path d="M40.6162 69.2239L41.3252 69.1539V59.2747H40.6162V69.2239Z" fill="#D17918"/>
<path d="M37.208 59.2747V69.424L38.2209 69.389V59.2747H37.208Z" fill="#D17918"/>
<path d="M35.568 65.523C23.535 65.523 13.791 61.8164 13.791 57.2445C13.791 52.6725 23.535 49.016 35.568 49.016C47.6011 49.016 57.345 52.7226 57.345 57.2895C57.345 61.8564 47.596 65.523 35.568 65.523Z" fill="#FF931E"/>
<path style="mix-blend-mode:multiply" opacity="0.4" d="M47.8442 64.1018C47.2263 64.1018 46.6034 64.1368 45.9703 64.1368C33.9423 64.1368 24.1933 60.4302 24.1933 55.8583C24.1933 53.0171 27.9612 50.516 33.7043 49.0254C22.5626 49.3855 13.791 52.937 13.791 57.2639C13.791 61.8358 23.5451 65.5424 35.568 65.5424C39.7051 65.5738 43.8297 65.0898 47.8442 64.1018V64.1018Z" fill="url(#paint0_linear_376_2)"/>
<path d="M57.3342 57.5182C56.9746 53.0663 47.3725 49.5148 35.5572 49.5148C23.742 49.5148 14.1449 53.0813 13.7803 57.5182C14.1348 61.9651 23.742 65.5216 35.5572 65.5216C47.3725 65.5216 56.9595 61.9701 57.3342 57.5182ZM35.5572 64.5211C25.7779 64.5211 17.8318 61.5199 17.8318 57.7833C17.8318 54.0467 25.788 51.0455 35.5572 51.0455C45.3265 51.0455 53.2827 54.0467 53.2827 57.7833C53.2827 61.5199 45.3417 64.5211 35.5674 64.5211H35.5572Z" fill="#D17918"/>
<path d="M33.5922 56.1187L25.165 58.5197V60.1804L33.7745 57.5543C34.8585 58.3387 36.1119 58.8644 37.4361 59.0899L37.8261 59.1649V60.6656H40.9559V59.5201C41.6345 59.5501 42.2726 59.5501 42.8247 59.5201V60.6406H45.9494V56.1887H42.8247V58.3396C42.3182 58.3396 41.6497 58.3396 40.9559 58.3146V56.1887H37.8261V57.6893C37.1121 57.4466 36.4843 57.0054 36.0181 56.4188L33.5922 56.1187Z" fill="#D17918"/>
<path d="M53.2973 57.2644C53.2973 60.9809 45.3411 64.0022 35.5719 64.0022C25.8026 64.0022 17.8465 61.0009 17.8465 57.2644C17.8465 53.5278 25.8026 50.5315 35.5719 50.5315C45.3411 50.5315 53.2973 53.5328 53.2973 57.2644ZM57.3489 57.2644C57.3489 52.6974 47.5948 48.9909 35.5719 48.9909C23.549 48.9909 13.7949 52.6974 13.7949 57.2644C13.7949 61.8313 23.5338 65.5228 35.5668 65.5228C47.5999 65.5228 57.3438 61.8163 57.3438 57.2444L57.3489 57.2644Z" fill="#FFC022"/>
<path d="M20.1768 57.2647C20.1768 54.0433 27.0796 51.4222 35.5675 51.4222C44.0555 51.4222 50.9532 54.0433 50.9532 57.2647C50.9532 60.486 44.0504 63.1121 35.5675 63.1121C27.0846 63.1121 20.1768 60.491 20.1768 57.2647ZM50.2796 57.2647C50.2796 54.1834 43.6959 51.6774 35.5675 51.6774C27.4391 51.6774 20.8807 54.1784 20.8807 57.2647C20.8807 60.351 27.4645 62.8571 35.5675 62.8571C43.6706 62.8571 50.2796 60.346 50.2796 57.2647Z" fill="#FFC022"/>
<path d="M33.5922 55.0175L25.165 57.4135V59.0742L33.7745 56.4481C34.8596 57.2306 36.1125 57.7561 37.4361 57.9837L37.8261 58.0587V59.5594H40.9559V58.4239C41.6345 58.4489 42.2726 58.4539 42.8247 58.4239V59.5193H45.9494V55.0725H42.8247V57.2184C42.2017 57.2416 41.578 57.2332 40.9559 57.1934V55.0725H37.8261V56.5731C37.113 56.3287 36.4857 55.8878 36.0181 55.3026L33.5922 55.0175Z" fill="#FFC022"/>
<path d="M13.7803 52.9026C13.7803 57.4696 23.5343 61.1761 35.5572 61.1761C47.5802 61.1761 57.3342 57.4696 57.3342 52.9026V49.016H13.7803V52.9026Z" fill="#FF931E"/>
<path d="M33.4912 51.016V61.1503C34.1749 61.1503 34.8687 61.1903 35.5676 61.1903V51.016H33.4912Z" fill="#D17918"/>
<path d="M29.293 51.016V60.8401C30.4173 60.9702 31.5821 61.0602 32.7773 61.1202V51.016H29.293Z" fill="#D17918"/>
<path d="M28.4316 60.7209V49.016H13.7803V52.9126C13.7803 56.5192 19.9031 59.5955 28.4316 60.7209Z" fill="#D17918"/>
<path d="M43.3262 51.016V60.6451C43.5642 60.61 43.8022 60.58 44.0352 60.54V51.016H43.3262Z" fill="#D17918"/>
<path d="M40.6162 60.9502L41.3252 60.8801V51.016H40.6162V60.9502Z" fill="#D17918"/>
<path d="M37.208 51.016V61.1653L38.2209 61.1253V51.016H37.208Z" fill="#D17918"/>
<path d="M35.568 57.2634C23.535 57.2634 13.791 53.5619 13.791 48.99C13.791 44.4181 23.5451 40.7165 35.568 40.7165C47.5909 40.7165 57.345 44.4181 57.345 48.99C57.345 53.5619 47.596 57.2634 35.568 57.2634Z" fill="#FF931E"/>
<path style="mix-blend-mode:multiply" opacity="0.4" d="M47.8442 55.8292C47.2263 55.8292 46.6034 55.8592 45.9703 55.8592C33.9423 55.8592 24.1933 52.1577 24.1933 47.5857C24.1933 44.7446 27.9612 42.2385 33.7043 40.7479C22.5626 41.108 13.791 44.6595 13.791 48.9913C13.791 53.5633 23.5451 57.2648 35.568 57.2648C39.7049 57.2977 43.8294 56.8154 47.8442 55.8292V55.8292Z" fill="url(#paint1_linear_376_2)"/>
<path d="M57.3342 49.2453C56.9746 44.7984 47.3725 41.2419 35.5572 41.2419C23.742 41.2419 14.1449 44.8134 13.7803 49.2453C14.1348 53.6972 23.742 57.2487 35.5572 57.2487C47.3725 57.2487 56.9595 53.6972 57.3342 49.2453ZM35.5572 56.2483C25.7779 56.2483 17.8318 53.247 17.8318 49.5154C17.8318 45.7839 25.788 42.7776 35.5572 42.7776C45.3265 42.7776 53.2827 45.7789 53.2827 49.5154C53.2827 53.252 45.3417 56.2383 35.5674 56.2383L35.5572 56.2483Z" fill="#D17918"/>
<path d="M33.5922 47.8395L25.165 50.2355V51.8962L33.7745 49.2701C34.8596 50.0527 36.1125 50.5781 37.4361 50.8058L37.8261 50.8808V52.3815H40.9559V51.241C41.6345 51.271 42.2726 51.271 42.8247 51.241V52.3614H45.9494V47.9096H42.8247V50.0555C42.2021 50.087 41.5784 50.087 40.9559 50.0555V47.9146H37.8261V49.4152C37.1121 49.1725 36.4843 48.7313 36.0181 48.1447L33.5922 47.8395Z" fill="#D17918"/>
<path d="M53.2973 49.0151C53.2973 52.7316 45.3411 55.7529 35.5719 55.7529C25.8026 55.7529 17.8465 52.7516 17.8465 49.0151C17.8465 45.2785 25.8026 42.2772 35.5719 42.2772C45.3411 42.2772 53.2973 45.2785 53.2973 49.0151ZM57.3489 49.0151C57.3489 44.4431 47.5948 40.7416 35.5719 40.7416C23.549 40.7416 13.7949 44.4431 13.7949 49.0151C13.7949 53.587 23.549 57.2885 35.5719 57.2885C47.5948 57.2885 57.3489 53.587 57.3489 49.0151Z" fill="#FFC022"/>
<path d="M20.1768 49.0157C20.1768 45.7893 27.0796 43.1682 35.5675 43.1682C44.0555 43.1682 50.9532 45.7893 50.9532 49.0157C50.9532 52.2421 44.0504 54.8632 35.5675 54.8632C27.0846 54.8632 20.1768 52.212 20.1768 49.0157ZM50.2796 49.0157C50.2796 45.9344 43.6959 43.4283 35.5675 43.4283C27.4391 43.4283 20.8807 45.9294 20.8807 49.0157C20.8807 52.102 27.4645 54.6031 35.5675 54.6031C43.6706 54.6031 50.2796 52.072 50.2796 49.0157Z" fill="#FFC022"/>
<path d="M33.5922 46.7289L25.165 49.12V50.7857L33.7745 48.1545C34.8585 48.939 36.1119 49.4646 37.4361 49.6902L37.8261 49.7702V51.2709H40.9559V50.1304C41.6345 50.1604 42.2726 50.1654 42.8247 50.1304V51.2509H45.9494V46.799H42.8247V48.9499C42.3182 48.9499 41.6497 48.9499 40.9559 48.9249V46.799H37.8261V48.2996C37.1112 48.0587 36.4829 47.6172 36.0181 47.0291L33.5922 46.7289Z" fill="#FFC022"/>
<path d="M13.7803 44.6231C13.7803 49.195 23.5343 52.8966 35.5572 52.8966C47.5802 52.8966 57.3342 49.195 57.3342 44.6231V40.7165H13.7803V44.6231Z" fill="#FF931E"/>
<path d="M33.4912 42.7227V52.862C34.1749 52.887 34.8687 52.897 35.5676 52.897V42.7227H33.4912Z" fill="#D17918"/>
<path d="M29.293 42.7227V52.5468C30.4173 52.6769 31.5821 52.7719 32.7773 52.827V42.7227H29.293Z" fill="#D17918"/>
<path d="M28.4316 52.4421V40.7321H13.7803V44.6238C13.7803 48.2453 19.9031 51.3216 28.4316 52.4421Z" fill="#D17918"/>
<path d="M43.3262 42.7227V52.3568L44.0352 52.2517V42.7227H43.3262Z" fill="#D17918"/>
<path d="M40.6162 52.6719L41.3252 52.6069V42.7227H40.6162V52.6719Z" fill="#D17918"/>
<path d="M37.208 42.7227V52.872C37.5524 52.872 37.8968 52.872 38.2209 52.837V42.7227H37.208Z" fill="#D17918"/>
<path d="M35.568 49.0159C23.535 49.0159 13.791 45.3094 13.791 40.7425C13.791 36.1755 23.5451 32.464 35.568 32.464C47.5909 32.464 57.345 36.1705 57.345 40.7425C57.345 45.3144 47.596 49.0159 35.568 49.0159Z" fill="#FF931E"/>
<path style="mix-blend-mode:multiply" opacity="0.4" d="M47.8442 47.5498C47.2263 47.5498 46.6034 47.5848 45.9703 47.5848C33.9423 47.5848 24.1933 43.8782 24.1933 39.3113C24.1933 36.4701 27.9612 33.964 33.7043 32.4734C22.5626 32.8336 13.791 36.3851 13.791 40.7169C13.791 45.2838 23.5451 48.9904 35.568 48.9904C39.7052 49.0243 43.8301 48.5403 47.8442 47.5498V47.5498Z" fill="url(#paint2_linear_376_2)"/>
<path d="M57.3342 40.9725C56.9746 36.5206 47.3725 32.9691 35.5572 32.9691C23.742 32.9691 14.1449 36.5356 13.7803 40.9725C14.1348 45.4243 23.742 48.9758 35.5572 48.9758C47.3725 48.9758 56.9595 45.4243 57.3342 40.9725ZM35.5572 47.9754C25.7779 47.9754 17.8318 44.9741 17.8318 41.2376C17.8318 37.501 25.788 34.5047 35.5572 34.5047C45.3265 34.5047 53.2827 37.506 53.2827 41.2376C53.2827 44.9691 45.3417 47.9654 35.5674 47.9654L35.5572 47.9754Z" fill="#D17918"/>
<path d="M33.5922 39.5667L25.165 41.9577V43.6234L33.7745 40.9973C34.8596 41.7798 36.1125 42.3053 37.4361 42.5329L37.8261 42.6079V44.1086H40.9559V42.9681C41.6345 42.9981 42.2726 43.0031 42.8247 42.9931V44.1086H45.9494V39.6567H42.8247V41.8076C42.2017 41.8308 41.578 41.8224 40.9559 41.7826V39.6567H37.8261V41.1573C37.113 40.9129 36.4857 40.472 36.0181 39.8868L33.5922 39.5667Z" fill="#D17918"/>
<path d="M53.2973 40.7174C53.2973 44.4289 45.3411 47.4502 35.5719 47.4502C25.8026 47.4502 17.8465 44.449 17.8465 40.7174C17.8465 36.9858 25.8026 33.9796 35.5719 33.9796C45.3411 33.9796 53.2973 36.9808 53.2973 40.7174ZM57.3489 40.7174C57.3489 36.1455 47.5948 32.4389 35.5719 32.4389C23.549 32.4389 13.7949 36.1455 13.7949 40.7174C13.7949 45.2893 23.5338 49.0159 35.5668 49.0159C47.5999 49.0159 57.3438 45.3093 57.3438 40.7424L57.3489 40.7174Z" fill="#FFC022"/>
<path d="M20.1768 40.7177C20.1768 37.4913 27.0796 34.8702 35.5675 34.8702C44.0555 34.8702 50.9532 37.4913 50.9532 40.7177C50.9532 43.9441 44.0504 46.5602 35.5675 46.5602C27.0846 46.5602 20.1768 43.9391 20.1768 40.7177ZM50.2796 40.7177C50.2796 37.6364 43.6959 35.1254 35.5675 35.1254C27.4391 35.1254 20.8807 37.6264 20.8807 40.7177C20.8807 43.809 27.4645 46.305 35.5675 46.305C43.6706 46.305 50.2796 43.799 50.2796 40.7177Z" fill="#FFC022"/>
<path d="M33.5922 38.4561L25.165 40.8471V42.5128L33.7745 39.8866C34.8596 40.6692 36.1125 41.1947 37.4361 41.4223L37.8261 41.4973V42.998H40.9559V41.8575C41.6345 41.8875 42.2726 41.8875 42.8247 41.8575V42.9779H45.9494V38.5111H42.8247V40.662C42.3182 40.662 41.6497 40.662 40.9559 40.632V38.5111H37.8261V40.0117C37.1121 39.769 36.4843 39.3278 36.0181 38.7412L33.5922 38.4561Z" fill="#FFC022"/>
<path d="M67.4229 45.2835C67.4229 49.8554 77.1769 53.557 89.1998 53.557C101.223 53.557 110.977 49.8554 110.977 45.2835V41.3768H67.4229V45.2835Z" fill="#FF931E"/>
<path d="M87.1328 43.3831V53.5174C87.8165 53.5424 88.5053 53.5524 89.2042 53.5524V43.3831H87.1328Z" fill="#D17918"/>
<path d="M82.9297 43.3831V53.2073C84.0607 53.3373 85.2222 53.4307 86.414 53.4874V43.3831H82.9297Z" fill="#D17918"/>
<path d="M82.0691 53.1025V41.3926H67.4229V45.2842C67.4229 48.9057 73.5457 51.982 82.0691 53.1025Z" fill="#D17918"/>
<path d="M96.9678 43.3831V53.0172L97.6768 52.9121V43.3831H96.9678Z" fill="#D17918"/>
<path d="M94.2539 53.3323L94.9629 53.2673V43.3831H94.2539V53.3323Z" fill="#D17918"/>
<path d="M90.8203 43.3831V53.5174L91.8585 53.4824V43.3831H90.8203Z" fill="#D17918"/>
<path d="M89.2037 49.6512C77.1758 49.6512 67.4268 45.9447 67.4268 41.3778C67.4268 36.8109 77.1808 33.0993 89.2037 33.0993C101.227 33.0993 110.981 36.8059 110.981 41.3778C110.981 45.9497 101.237 49.6512 89.2037 49.6512Z" fill="#FF931E"/>
<path style="mix-blend-mode:multiply" opacity="0.4" d="M101.481 48.2101C100.863 48.2101 100.24 48.2451 99.6068 48.2451C87.5738 48.2451 77.8299 44.5386 77.8299 39.9717C77.8299 37.1305 81.6028 34.6244 87.3408 33.1338C76.1991 33.4939 67.4326 37.0454 67.4326 41.3773C67.4326 45.9442 77.1867 49.6507 89.2096 49.6507C93.3451 49.6838 97.4682 49.1997 101.481 48.2101Z" fill="url(#paint3_linear_376_2)"/>
<path d="M110.972 41.6328C110.617 37.1809 101.01 33.6295 89.195 33.6295C77.3797 33.6295 67.7877 37.196 67.418 41.6328C67.7775 46.0847 77.3797 49.6362 89.195 49.6362C101.01 49.6362 110.643 46.0847 110.972 41.6328ZM89.195 48.6358C79.4156 48.6358 71.4695 45.6345 71.4695 41.8979C71.4695 38.1614 79.4206 35.1651 89.195 35.1651C98.9693 35.1651 106.92 38.1664 106.92 41.8979C106.92 45.6295 98.9946 48.6258 89.2051 48.6258L89.195 48.6358Z" fill="#D17918"/>
<path d="M87.2299 40.2271L78.8027 42.6181V44.2838L87.4122 41.6577C88.4998 42.4392 89.754 42.9645 91.0789 43.1933L91.4688 43.2683V44.769H94.5936V43.6285C95.2773 43.6585 95.9154 43.6635 96.4623 43.6285V44.749H99.5921V40.2971H96.4623V42.448C95.9559 42.448 95.2924 42.448 94.5936 42.423V40.2971H91.4688V41.7977C90.7552 41.5569 90.1273 41.1174 89.6608 40.5322L87.2299 40.2271Z" fill="#D17918"/>
<path d="M106.941 41.3778C106.941 45.0893 98.9847 48.1106 89.2154 48.1106C79.4462 48.1106 71.49 45.1094 71.49 41.3778C71.49 37.6462 79.4411 34.64 89.2154 34.64C98.9898 34.64 106.941 37.6412 106.941 41.3778ZM110.992 41.3778C110.992 36.8059 101.238 33.0993 89.2154 33.0993C77.1925 33.0993 67.4385 36.8059 67.4385 41.3778C67.4385 45.9497 77.1925 49.6512 89.2154 49.6512C101.238 49.6512 110.992 45.9447 110.992 41.3778Z" fill="#FFC022"/>
<path d="M73.8184 41.3781C73.8184 38.1517 80.7212 35.5306 89.2041 35.5306C97.687 35.5306 104.595 38.1517 104.595 41.3781C104.595 44.6045 97.692 47.2205 89.2041 47.2205C80.7161 47.2205 73.8184 44.5995 73.8184 41.3781ZM103.916 41.3781C103.916 38.2968 97.3324 35.7857 89.2041 35.7857C81.0757 35.7857 74.4919 38.2868 74.4919 41.3781C74.4919 44.4694 81.0757 46.9654 89.2041 46.9654C97.3324 46.9654 103.916 44.4594 103.916 41.3781Z" fill="#FFC022"/>
<path d="M87.2299 39.1165L78.8027 41.5125V43.1732L87.4122 40.5471C88.4998 41.3287 89.754 41.854 91.0789 42.0828C91.2055 42.1128 91.3371 42.1328 91.4688 42.1578V43.6584H94.5936V42.5129C95.2773 42.543 95.9154 42.543 96.4623 42.5129V43.6334H99.5921V39.1815H96.4623V41.3275C95.8394 41.3506 95.2156 41.3422 94.5936 41.3024V39.1815H91.4688V40.6822C90.7558 40.4377 90.1284 39.9969 89.6608 39.4116L87.2299 39.1165Z" fill="#FFC022"/>
<path d="M67.4229 37.011C67.4229 41.5779 77.1769 45.2844 89.1998 45.2844C101.223 45.2844 110.977 41.5779 110.977 37.011V33.0993H67.4229V37.011Z" fill="#FF931E"/>
<path d="M87.1328 35.1103V45.2445C87.8165 45.2696 88.5053 45.2846 89.2042 45.2846V35.1103H87.1328Z" fill="#D17918"/>
<path d="M82.9297 35.1103V44.9344C84.0607 45.0645 85.2222 45.1578 86.414 45.2145V35.1103H82.9297Z" fill="#D17918"/>
<path d="M82.0691 44.8283V33.1134H67.4229V37.01C67.4229 40.6266 73.5457 43.7029 82.0691 44.8283Z" fill="#D17918"/>
<path d="M96.9678 35.1103V44.7443L97.6768 44.6343V35.1303L96.9678 35.1103Z" fill="#D17918"/>
<path d="M94.2537 45.0595L94.9424 45.0145V35.1103H94.2334L94.2537 45.0595Z" fill="#D17918"/>
<path d="M90.8203 35.1103V45.2596C91.1698 45.2596 91.5142 45.2596 91.8585 45.2195V35.1103H90.8203Z" fill="#D17918"/>
<path d="M89.2037 41.3768C77.1758 41.3768 67.4268 37.6703 67.4268 33.0983C67.4268 28.5264 77.1808 24.8249 89.2037 24.8249C101.227 24.8249 110.981 28.5314 110.981 33.0983C110.981 37.6653 101.237 41.3768 89.2037 41.3768Z" fill="#FF931E"/>
<path style="mix-blend-mode:multiply" opacity="0.4" d="M101.481 39.9373C100.863 39.9373 100.24 39.9673 99.6068 39.9673C87.5738 39.9673 77.8299 36.2657 77.8299 31.6938C77.8299 28.8526 81.6028 26.3466 87.3408 24.8609C76.1991 25.2211 67.4326 28.7726 67.4326 33.0994C67.4326 37.6713 77.1867 41.3779 89.2096 41.3779C93.345 41.4085 97.4678 40.9245 101.481 39.9373V39.9373Z" fill="url(#paint4_linear_376_2)"/>
<path d="M110.972 33.3584C110.617 28.9066 101.01 25.3551 89.195 25.3551C77.3797 25.3551 67.7877 28.9216 67.418 33.3584C67.7775 37.8053 77.3797 41.3618 89.195 41.3618C101.01 41.3618 110.643 37.8053 110.972 33.3584ZM89.195 40.3614C79.4156 40.3614 71.4695 37.3351 71.4695 33.6236C71.4695 29.912 79.4206 26.8857 89.195 26.8857C98.9693 26.8857 106.92 29.887 106.92 33.6236C106.92 37.3601 98.9946 40.3514 89.2051 40.3514L89.195 40.3614Z" fill="#D17918"/>
<path d="M87.2299 31.9526L78.8027 34.3436V36.0093L87.4122 33.3832C88.4998 34.1648 89.754 34.6901 91.0789 34.9189C91.2055 34.9489 91.3371 34.9739 91.4688 34.9939V36.4946H94.5936V35.3541C95.2773 35.3841 95.9154 35.3841 96.4623 35.3541V36.4745H99.5921V32.0077H96.4623V34.1586C95.9559 34.1586 95.2924 34.1586 94.5936 34.1336V32.0077H91.4688V33.5083C90.7548 33.2656 90.127 32.8244 89.6608 32.2377L87.2299 31.9526Z" fill="#D17918"/>
<path d="M106.941 33.0983C106.941 36.8149 98.9847 39.8362 89.2154 39.8362C79.4462 39.8362 71.49 36.8349 71.49 33.0983C71.49 29.3618 79.4411 26.3655 89.2154 26.3655C98.9898 26.3655 106.941 29.3668 106.941 33.0983ZM110.992 33.0983C110.992 28.5314 101.238 24.8249 89.2154 24.8249C77.1925 24.8249 67.4385 28.5314 67.4385 33.0983C67.4385 37.6653 77.1925 41.3768 89.2154 41.3768C101.238 41.3768 110.992 37.6703 110.992 33.0983Z" fill="#FFC022"/>
<path d="M73.8184 33.0987C73.8184 29.8773 80.7212 27.2562 89.2041 27.2562C97.687 27.2562 104.595 29.8773 104.595 33.0987C104.595 36.32 97.692 38.9461 89.2041 38.9461C80.7161 38.9461 73.8184 36.325 73.8184 33.0987ZM103.916 33.0987C103.916 30.0174 97.3324 27.5113 89.2041 27.5113C81.0757 27.5113 74.4919 30.0124 74.4919 33.0987C74.4919 36.185 81.0757 38.691 89.2041 38.691C97.3324 38.691 103.916 36.18 103.916 33.0987Z" fill="#FFC022"/>
<path d="M87.2299 30.8374L78.8027 33.2334V34.8941L87.4122 32.263C88.4981 33.0483 89.7529 33.5756 91.0789 33.8036L91.4688 33.8787V35.3793H94.5936V34.2388C95.2773 34.2688 95.9154 34.2738 96.4623 34.2638V35.3793H99.5921V30.9274H96.4623V33.0783C95.8394 33.1015 95.2156 33.0931 94.5936 33.0533V30.9074H91.4688V32.408C90.7552 32.1672 90.1273 31.7277 89.6608 31.1425L87.2299 30.8374Z" fill="#FFC022"/>
<path d="M67.4229 28.7365C67.4229 33.3034 77.1769 37.01 89.1998 37.01C101.223 37.01 110.977 33.3034 110.977 28.7365V24.8249H67.4229V28.7365Z" fill="#FF931E"/>
<path d="M87.1328 26.8358V36.9701C87.8165 36.9951 88.5053 37.0101 89.2042 37.0101V26.8358H87.1328Z" fill="#D17918"/>
<path d="M82.9297 26.8358V36.6599C84.0607 36.7866 85.2222 36.88 86.414 36.94V26.8358H82.9297Z" fill="#D17918"/>
<path d="M82.0691 36.5505V24.8405H67.4229V28.7372C67.4229 32.3537 73.5457 35.43 82.0691 36.5505Z" fill="#D17918"/>
<path d="M96.9678 26.8358V36.4649L97.6768 36.3598V26.8558L96.9678 26.8358Z" fill="#D17918"/>
<path d="M94.2539 36.785L94.9629 36.715V26.8358H94.2539V36.785Z" fill="#D17918"/>
<path d="M90.8203 26.8358V37.0101L91.8585 36.9701V26.8358H90.8203Z" fill="#D17918"/>
<path d="M89.2037 33.099C77.1758 33.099 67.4268 29.3974 67.4268 24.8255C67.4268 20.2536 77.1808 16.552 89.2037 16.552C101.227 16.552 110.981 20.2536 110.981 24.8255C110.981 29.3974 101.237 33.099 89.2037 33.099Z" fill="#FF931E"/>
<path style="mix-blend-mode:multiply" opacity="0.4" d="M101.481 31.6631C100.863 31.6631 100.24 31.6931 99.6068 31.6931C87.5738 31.6931 77.8299 27.9866 77.8299 23.4196C77.8299 20.5785 81.6028 18.0724 87.3408 16.5818C76.1991 16.9419 67.4326 20.4934 67.4326 24.8252C67.4326 29.3972 77.1867 33.0987 89.2096 33.0987C93.3447 33.1308 97.4675 32.6485 101.481 31.6631V31.6631Z" fill="url(#paint5_linear_376_2)"/>
<path d="M110.972 25.0809C110.617 20.629 101.01 17.0775 89.195 17.0775C77.3797 17.0775 67.7877 20.644 67.418 25.0809C67.7775 29.5327 77.3797 33.0842 89.195 33.0842C101.01 33.0842 110.643 29.5327 110.972 25.0809ZM89.195 32.0838C79.4156 32.0838 71.4695 29.0825 71.4695 25.351C71.4695 21.6194 79.4206 18.6131 89.195 18.6131C98.9693 18.6131 106.92 21.6144 106.92 25.351C106.92 29.0875 98.9946 32.0738 89.2051 32.0738L89.195 32.0838Z" fill="#D17918"/>
<path d="M87.2299 23.6751L78.8027 26.0661V27.7318L87.4122 25.1057C88.4998 25.8872 89.754 26.4125 91.0789 26.6413C91.2055 26.6713 91.3371 26.6913 91.4688 26.7163V28.217H94.5936V27.0815C95.2773 27.1115 95.9154 27.1115 96.4623 27.0815V28.197H99.5921V23.7501H96.4623V25.896C95.8398 25.9275 95.2161 25.9275 94.5936 25.896V23.7751H91.4688V25.2757C90.7613 25.0288 90.1395 24.5881 89.676 24.0052L87.2299 23.6751Z" fill="#D17918"/>
<path d="M106.941 24.8255C106.941 28.5371 98.9847 31.5633 89.2154 31.5633C79.4462 31.5633 71.49 28.5371 71.49 24.8255C71.49 21.1139 79.4411 18.0877 89.2154 18.0877C98.9898 18.0877 106.941 21.0889 106.941 24.8255ZM110.992 24.8255C110.992 20.2536 101.238 16.552 89.2154 16.552C77.1925 16.552 67.4385 20.2536 67.4385 24.8255C67.4385 29.3974 77.1925 33.099 89.2154 33.099C101.238 33.099 110.992 29.3974 110.992 24.8255Z" fill="#FFC022"/>
<path d="M73.8184 24.8245C73.8184 21.5982 80.7212 18.9771 89.2041 18.9771C97.687 18.9771 104.595 21.5982 104.595 24.8245C104.595 28.0509 97.692 30.672 89.2041 30.672C80.7161 30.672 73.8184 28.0459 73.8184 24.8245ZM103.916 24.8245C103.916 21.7432 97.3324 19.2372 89.2041 19.2372C81.0757 19.2372 74.4919 21.7382 74.4919 24.8245C74.4919 27.9108 81.0757 30.4119 89.2041 30.4119C97.3324 30.4119 103.916 27.9058 103.916 24.8245Z" fill="#FFC022"/>
<path d="M87.2299 22.5645L78.8027 24.9555V26.6162L87.4122 23.9901C88.5061 24.7666 89.7656 25.2851 91.0941 25.5057L91.484 25.5857V27.0864H94.6088V25.9459C95.2925 25.9759 95.9306 25.9809 96.4776 25.9459V27.0664H99.6074V22.6145H96.4624V24.7654C95.9559 24.7654 95.2925 24.7654 94.5936 24.7404V22.6145H91.4689V24.1151C90.7539 23.8743 90.1256 23.4327 89.6608 22.8446L87.2299 22.5645Z" fill="#FFC022"/>
<path d="M67.4229 20.4586C67.4229 25.0306 77.1769 28.7321 89.1998 28.7321C101.223 28.7321 110.977 25.0306 110.977 20.4586V16.552H67.4229V20.4586Z" fill="#FF931E"/>
<path d="M87.1328 18.5583V28.6975C87.8165 28.7225 88.5053 28.7326 89.2042 28.7326V18.5583H87.1328Z" fill="#D17918"/>
<path d="M82.9297 18.5583V28.3824C84.0607 28.5125 85.2222 28.6058 86.414 28.6625V18.5583H82.9297Z" fill="#D17918"/>
<path d="M82.0691 28.276V16.5661H67.4229V20.4577C67.4229 24.0793 73.5457 27.1556 82.0691 28.276Z" fill="#D17918"/>
<path d="M96.9678 18.5583V28.1923L97.6768 28.0873V18.5583H96.9678Z" fill="#D17918"/>
<path d="M94.2539 28.5075L94.9629 28.4424V18.5583H94.2539V28.5075Z" fill="#D17918"/>
<path d="M90.8203 18.5583V28.7075L91.8585 28.6725V18.5583H90.8203Z" fill="#D17918"/>
<path d="M89.2037 24.8249C77.1758 24.8249 67.4268 21.1183 67.4268 16.5514C67.4268 11.9845 77.1808 8.27289 89.2037 8.27289C101.227 8.27289 110.981 11.9795 110.981 16.5514C110.981 21.1233 101.237 24.8249 89.2037 24.8249Z" fill="#FF931E"/>
<path style="mix-blend-mode:multiply" opacity="0.4" d="M101.481 23.3853C100.863 23.3853 100.24 23.4203 99.6068 23.4203C87.5738 23.4203 77.8299 19.7138 77.8299 15.1468C77.8299 12.3056 81.6028 9.79959 87.3408 8.30896C76.1991 8.66911 67.4326 12.2206 67.4326 16.5524C67.4326 21.1194 77.1867 24.8259 89.2096 24.8259C93.3451 24.859 97.4682 24.3749 101.481 23.3853V23.3853Z" fill="url(#paint6_linear_376_2)"/>
<path d="M110.972 16.8064C110.617 12.3545 101.01 8.80304 89.195 8.80304C77.3797 8.80304 67.7877 12.3695 67.418 16.8064C67.7775 21.2583 77.3797 24.8098 89.195 24.8098C101.01 24.8098 110.643 21.2583 110.972 16.8064ZM89.195 23.8094C79.4156 23.8094 71.4695 20.8081 71.4695 17.0715C71.4695 13.335 79.4206 10.3387 89.195 10.3387C98.9693 10.3387 106.92 13.34 106.92 17.0715C106.92 20.8031 98.9946 23.7994 89.2051 23.7994L89.195 23.8094Z" fill="#D17918"/>
<path d="M87.2299 15.4022L78.8027 17.7932V19.4589L87.4122 16.8328C88.4998 17.6143 89.754 18.1396 91.0789 18.3685L91.4688 18.4435V19.9441H94.5936V18.8036C95.2773 18.8336 95.9154 18.8386 96.4623 18.8036V19.9241H99.5921V15.4722H96.4623V17.6231C95.9559 17.6231 95.2924 17.6231 94.5936 17.5981V15.4722H91.4688V16.9729C90.7552 16.7321 90.1273 16.2926 89.6608 15.7073L87.2299 15.4022Z" fill="#D17918"/>
<path d="M106.941 16.5514C106.941 20.2629 98.9847 23.2842 89.2154 23.2842C79.4462 23.2842 71.49 20.2829 71.49 16.5514C71.49 12.8198 79.4411 9.81354 89.2154 9.81354C98.9898 9.81354 106.941 12.8148 106.941 16.5514ZM110.992 16.5514C110.992 11.9795 101.238 8.27289 89.2154 8.27289C77.1925 8.27289 67.4385 11.9795 67.4385 16.5514C67.4385 21.1233 77.1925 24.8249 89.2154 24.8249C101.238 24.8249 110.992 21.1183 110.992 16.5514Z" fill="#FFC022"/>
<path d="M73.8184 16.5517C73.8184 13.3253 80.7212 10.7042 89.2041 10.7042C97.687 10.7042 104.595 13.3253 104.595 16.5517C104.595 19.778 97.692 22.3941 89.2041 22.3941C80.7161 22.3941 73.8184 19.773 73.8184 16.5517ZM103.916 16.5517C103.916 13.4704 97.3324 10.9593 89.2041 10.9593C81.0757 10.9593 74.4919 13.4604 74.4919 16.5517C74.4919 19.6429 81.0757 22.139 89.2041 22.139C97.3324 22.139 103.916 19.6329 103.916 16.5517Z" fill="#FFC022"/>
<path d="M87.2299 14.2916L78.8027 16.6826V18.3433L87.4122 15.7172C88.4998 16.4988 89.754 17.0241 91.0789 17.2529C91.2055 17.2829 91.3371 17.3029 91.4688 17.3279V18.8285H94.5936V17.6881C95.2773 17.7181 95.9154 17.7181 96.4623 17.6881V18.8085H99.5921V14.3567H96.4623V16.5026C95.8394 16.5257 95.2156 16.5174 94.5936 16.4776V14.3567H91.4688V15.8573C90.7558 15.6128 90.1284 15.172 89.6608 14.5868L87.2299 14.2916Z" fill="#FFC022"/>
<path d="M67.4229 12.1845C67.4229 16.7515 77.1769 20.458 89.1998 20.458C101.223 20.458 110.977 16.7515 110.977 12.1845V8.27289H67.4229V12.1845Z" fill="#FF931E"/>
<path d="M87.1328 10.2838V20.4181C87.8165 20.4431 88.5053 20.4581 89.2042 20.4581V10.2838H87.1328Z" fill="#D17918"/>
<path d="M82.9297 10.2838V20.1079C84.0607 20.238 85.2222 20.3314 86.414 20.3881V10.2838H82.9297Z" fill="#D17918"/>
<path d="M82.0691 20.0035V8.28854H67.4229V12.1852C67.4229 15.8067 73.5457 18.878 82.0691 20.0035Z" fill="#D17918"/>
<path d="M96.9678 10.2838V19.9179L97.6768 19.8078V10.3038L96.9678 10.2838Z" fill="#D17918"/>
<path d="M94.2539 20.233L94.9629 20.163V10.2838H94.2539V20.233Z" fill="#D17918"/>
<path d="M90.8203 10.2838V20.4331L91.8585 20.3981V10.2838H90.8203Z" fill="#D17918"/>
<path d="M89.2037 16.552C77.1758 16.552 67.4268 12.8454 67.4268 8.27347C67.4268 3.70155 77.1808 0 89.2037 0C101.227 0 110.981 3.70655 110.981 8.27347C110.981 12.8404 101.237 16.552 89.2037 16.552Z" fill="#FF931E"/>
<path style="mix-blend-mode:multiply" opacity="0.4" d="M101.481 15.1109C100.863 15.1109 100.24 15.1459 99.6068 15.1459C87.5738 15.1459 77.8299 11.4393 77.8299 6.8674C77.8299 4.0262 81.6028 1.52014 87.3408 0.0345154C76.1991 0.394668 67.4326 3.94617 67.4326 8.273C67.4326 12.8449 77.1867 16.5515 89.2096 16.5515C93.345 16.5821 97.4678 16.0981 101.481 15.1109V15.1109Z" fill="url(#paint7_linear_376_2)"/>
<path d="M110.972 8.53356C110.617 4.08168 101.01 0.530182 89.195 0.530182C77.3797 0.530182 67.7877 4.09669 67.418 8.53356C67.7775 12.9804 77.3797 16.5369 89.195 16.5369C101.01 16.5369 110.643 13.0004 110.972 8.53356ZM89.195 15.5365C79.4156 15.5365 71.4695 12.5102 71.4695 8.79867C71.4695 5.0871 79.4206 2.06083 89.195 2.06083C98.9693 2.06083 106.92 5.06209 106.92 8.79867C106.92 12.5352 98.9946 15.5265 89.2051 15.5265L89.195 15.5365Z" fill="#D17918"/>
<path d="M87.2299 7.12778L78.8027 9.49877V11.1595L87.4122 8.53337C88.4998 9.31491 89.754 9.84021 91.0789 10.069C91.2055 10.099 91.3371 10.124 91.4688 10.144V11.6447H94.5936V10.4992C95.2773 10.5292 95.9154 10.5292 96.4623 10.4992V11.6197H99.5921V7.16779H96.4623V9.3187C95.9559 9.3187 95.2924 9.31869 94.5936 9.29368V7.1978H91.4688V8.69843C90.7548 8.45575 90.127 8.01456 89.6608 7.42789L87.2299 7.12778Z" fill="#D17918"/>
<path d="M106.941 8.27347C106.941 11.99 98.9847 15.0113 89.2154 15.0113C79.4462 15.0113 71.49 12.01 71.49 8.27347C71.49 4.5369 79.4411 1.54064 89.2154 1.54064C98.9898 1.54064 106.941 4.5419 106.941 8.27347ZM110.992 8.27347C110.992 3.70655 101.238 0 89.2154 0C77.1925 0 67.4385 3.70655 67.4385 8.27347C67.4385 12.8404 77.1925 16.552 89.2154 16.552C101.238 16.552 110.992 12.8454 110.992 8.27347Z" fill="#FFC022"/>
<path d="M73.8184 8.27383C73.8184 5.05247 80.7212 2.43137 89.2041 2.43137C97.687 2.43137 104.595 5.05247 104.595 8.27383C104.595 11.4952 97.692 14.1213 89.2041 14.1213C80.7161 14.1213 73.8184 11.5002 73.8184 8.27383ZM103.916 8.27383C103.916 5.19253 97.3324 2.68648 89.2041 2.68648C81.0757 2.68648 74.4919 5.18753 74.4919 8.27383C74.4919 11.3601 81.0757 13.8662 89.2041 13.8662C97.3324 13.8662 103.916 11.3551 103.916 8.27383Z" fill="#FFC022"/>
<path d="M87.2299 5.99838L78.8027 8.39439V10.0551L87.4122 7.42398C88.4993 8.22392 89.7598 8.76333 91.0941 8.99964L91.484 9.07467V10.5753H94.6088V9.43482C95.2925 9.46483 95.9306 9.46983 96.4776 9.43482V10.5503H99.6074V6.09843H96.4624V8.24933C95.8394 8.27248 95.2157 8.26414 94.5936 8.22432V6.09843H91.4689V7.59906C90.7558 7.35461 90.1284 6.91374 89.6608 6.32852L87.2299 5.99838Z" fill="#FFC022"/>
<path d="M47.7324 70.2953C47.7324 74.8622 57.4865 78.5688 69.5094 78.5688C81.5323 78.5688 91.2864 74.8622 91.2864 70.2953V66.3837H47.7324V70.2953Z" fill="#FF931E"/>
<path d="M67.4424 68.3947V78.5289C68.1261 78.5539 68.8149 78.5689 69.5138 78.5689V68.3947H67.4424Z" fill="#D17918"/>
<path d="M63.2393 68.3947V78.2188C64.3686 78.3488 65.5284 78.4389 66.7236 78.4989V68.3947H63.2393Z" fill="#D17918"/>
<path d="M62.3787 78.1127V66.3978H47.7324V70.2944C47.7324 73.9109 53.8553 76.9872 62.3787 78.1127Z" fill="#D17918"/>
<path d="M77.2764 68.3947V78.0287L77.9854 77.9237V68.4197L77.2764 68.3947Z" fill="#D17918"/>
<path d="M74.5635 78.3438L75.2725 78.2738V68.3947H74.5635V78.3438Z" fill="#D17918"/>
<path d="M71.1396 68.3947V78.5289L72.1525 78.4889V68.3947H71.1396Z" fill="#D17918"/>
<path d="M69.5143 74.6562C57.4863 74.6562 47.7373 70.9547 47.7373 66.3827C47.7373 61.8108 57.4914 58.1093 69.5143 58.1093C81.5372 58.1093 91.2913 61.8108 91.2913 66.3827C91.2913 70.9547 81.5473 74.6562 69.5143 74.6562Z" fill="#FF931E"/>
<path style="mix-blend-mode:multiply" opacity="0.4" d="M81.7756 73.2204C81.1577 73.2204 80.5348 73.2504 79.9018 73.2504C67.8687 73.2504 58.1248 69.5488 58.1248 64.9769C58.1248 62.1357 61.8978 59.6297 67.6357 58.139C56.494 58.4992 47.7275 62.0507 47.7275 66.3825C47.7275 70.9544 57.4816 74.656 69.5045 74.656C73.6397 74.688 77.7625 74.2057 81.7756 73.2204V73.2204Z" fill="url(#paint8_linear_376_2)"/>
<path d="M91.2815 66.6381C90.927 62.1862 81.3198 58.6347 69.5045 58.6347C57.6892 58.6347 48.0972 62.2012 47.7275 66.6381C48.0871 71.0899 57.6892 74.6414 69.5045 74.6414C81.3198 74.6414 90.927 71.0899 91.2815 66.6381ZM69.5045 73.641C59.7251 73.641 51.7791 70.6397 51.7791 66.9082C51.7791 63.1766 59.7302 60.1703 69.5045 60.1703C79.2788 60.1703 87.23 63.1716 87.23 66.9082C87.23 70.6447 79.294 73.631 69.5147 73.631L69.5045 73.641Z" fill="#D17918"/>
<path d="M67.5405 65.2323L59.1133 67.6283V69.289L67.7228 66.6629C68.8103 67.4445 70.0646 67.9698 71.3894 68.1986C71.516 68.2286 71.6477 68.2486 71.7794 68.2736V69.7742H74.9041V68.6388C75.5878 68.6688 76.2259 68.6688 76.7729 68.6388V69.7542H79.9027V65.3073H76.7729V67.4532C76.15 67.4764 75.5262 67.4681 74.9041 67.4282V65.3073H71.7794V66.808C71.0654 66.5653 70.4376 66.1241 69.9714 65.5374L67.5405 65.2323Z" fill="#D17918"/>
<path d="M87.2485 66.3827C87.2485 70.0943 79.2923 73.1206 69.5231 73.1206C59.7538 73.1206 51.7976 70.0943 51.7976 66.3827C51.7976 62.6712 59.7488 59.6449 69.5231 59.6449C79.2974 59.6449 87.2485 62.6462 87.2485 66.3827ZM91.3 66.3827C91.3 61.8108 81.546 58.1093 69.5231 58.1093C57.5002 58.1093 47.7461 61.8108 47.7461 66.3827C47.7461 70.9547 57.5002 74.6562 69.5231 74.6562C81.546 74.6562 91.3 70.9547 91.3 66.3827Z" fill="#FFC022"/>
<path d="M54.1289 66.3833C54.1289 63.162 61.0317 60.5359 69.5146 60.5359C77.9975 60.5359 84.9053 63.162 84.9053 66.3833C84.9053 69.6047 78.0025 72.2308 69.5146 72.2308C61.0266 72.2308 54.1289 69.6047 54.1289 66.3833ZM84.2267 66.3833C84.2267 63.302 77.643 60.796 69.5399 60.796C61.4368 60.796 54.8278 63.297 54.8278 66.3833C54.8278 69.4696 61.4115 71.9707 69.5399 71.9707C77.6683 71.9707 84.2267 69.4646 84.2267 66.3833V66.3833Z" fill="#FFC022"/>
<path d="M67.5405 64.1217L59.1133 66.5227V68.1834L67.7228 65.5573C68.8092 66.3409 70.0639 66.8664 71.3894 67.093L71.7794 67.173V68.6736H74.9041V67.5231C75.5878 67.5531 76.2259 67.5581 76.7729 67.5231V68.6436H79.9027V64.1917H76.7729V66.3426C76.2665 66.3426 75.603 66.3426 74.9041 66.3176V64.1917H71.7794V65.6924C71.0645 65.4515 70.4362 65.01 69.9714 64.4218L67.5405 64.1217Z" fill="#FFC022"/>
<path d="M47.7324 62.0206C47.7324 66.5925 57.4865 70.2991 69.5094 70.2991C81.5323 70.2991 91.2864 66.5925 91.2864 62.0206V58.114H47.7324V62.0206Z" fill="#FF931E"/>
<path d="M67.4424 60.1155V70.2547C68.1261 70.2797 68.8149 70.2947 69.5138 70.2947V60.1155H67.4424Z" fill="#D17918"/>
<path d="M63.2393 60.1155V69.9396C64.3703 70.0697 65.5318 70.1647 66.7236 70.2247V60.1155H63.2393Z" fill="#D17918"/>
<path d="M62.3787 69.8349V58.1249H47.7324V62.0216C47.7324 65.6381 53.8553 68.7144 62.3787 69.8349Z" fill="#D17918"/>
<path d="M77.2764 60.1155V69.7495L77.9854 69.6445V60.1155H77.2764Z" fill="#D17918"/>
<path d="M74.5635 70.0647L75.2725 69.9997V60.1155H74.5635V70.0647Z" fill="#D17918"/>
<path d="M71.1396 60.1155V70.2648L72.1525 70.2298V60.1155H71.1396Z" fill="#D17918"/>
<path d="M69.5143 66.3821C57.4863 66.3821 47.7373 62.6755 47.7373 58.1086C47.7373 53.5417 57.4914 49.8301 69.5143 49.8301C81.5372 49.8301 91.2913 53.5367 91.2913 58.1086C91.2913 62.6806 81.5473 66.3821 69.5143 66.3821Z" fill="#FF931E"/>
<path style="mix-blend-mode:multiply" opacity="0.4" d="M81.7756 64.9425C81.1577 64.9425 80.5348 64.9775 79.9018 64.9775C67.8687 64.9775 58.1248 61.2709 58.1248 56.704C58.1248 53.8628 61.8978 51.3568 67.6357 49.8661C56.494 50.2263 47.7275 53.7778 47.7275 58.1096C47.7275 62.6765 57.4816 66.3831 69.5045 66.3831C73.64 66.4161 77.7632 65.9321 81.7756 64.9425V64.9425Z" fill="url(#paint9_linear_376_2)"/>
<path d="M91.2815 58.3652C90.927 53.9134 81.3198 50.3619 69.5045 50.3619C57.6892 50.3619 48.0972 53.9284 47.7275 58.3652C48.0871 62.8171 57.6892 66.3686 69.5045 66.3686C81.3198 66.3686 90.927 62.8171 91.2815 58.3652ZM69.5045 65.3682C59.7251 65.3682 51.7791 62.3669 51.7791 58.6303C51.7791 54.8938 59.7302 51.8975 69.5045 51.8975C79.2788 51.8975 87.23 54.8988 87.23 58.6303C87.23 62.3619 79.294 65.3582 69.5147 65.3582L69.5045 65.3682Z" fill="#D17918"/>
<path d="M67.5405 56.9594L59.1133 59.3504V61.0211L67.7228 58.395C68.8103 59.1766 70.0646 59.7019 71.3894 59.9307L71.7794 60.0057V61.5063H74.9041V60.3659C75.5878 60.3959 76.2259 60.4009 76.7729 60.3909V61.5063H79.9027V57.0194H76.7729V59.1703C76.15 59.1935 75.5262 59.1852 74.9041 59.1453V57.0194H71.7794V58.5201C71.0658 58.2793 70.4379 57.8398 69.9714 57.2545L67.5405 56.9594Z" fill="#D17918"/>
<path d="M87.2485 58.1086C87.2485 61.8202 79.2923 64.8415 69.5231 64.8415C59.7538 64.8415 51.7976 61.8402 51.7976 58.1086C51.7976 54.377 59.7488 51.3708 69.5231 51.3708C79.2974 51.3708 87.2485 54.372 87.2485 58.1086ZM91.3 58.1086C91.3 53.5367 81.546 49.8301 69.5231 49.8301C57.5002 49.8301 47.7461 53.5367 47.7461 58.1086C47.7461 62.6806 57.5002 66.3821 69.5231 66.3821C81.546 66.3821 91.3 62.6755 91.3 58.1086Z" fill="#FFC022"/>
<path d="M54.1289 58.1089C54.1289 54.8826 61.0317 52.2615 69.5146 52.2615C77.9975 52.2615 84.9053 54.8826 84.9053 58.1089C84.9053 61.3353 78.0025 63.9514 69.5146 63.9514C61.0266 63.9514 54.1289 61.3303 54.1289 58.1089ZM84.2267 58.1089C84.2267 55.0276 77.643 52.5166 69.5399 52.5166C61.4368 52.5166 54.8278 55.0176 54.8278 58.1089C54.8278 61.2002 61.4115 63.6963 69.5399 63.6963C77.6683 63.6963 84.2267 61.1902 84.2267 58.1089V58.1089Z" fill="#FFC022"/>
<path d="M67.5405 55.8489L59.1133 58.2399V59.9006L67.7228 57.2745C68.8103 58.056 70.0646 58.5813 71.3894 58.8101C71.516 58.8401 71.6477 58.8601 71.7794 58.8851V60.3858H74.9041V59.2453C75.5878 59.2753 76.2259 59.2753 76.7729 59.2453V60.3658H79.9027V55.9139H76.7729V58.0598C76.1504 58.0913 75.5266 58.0913 74.9041 58.0598V55.9189H71.7794V57.4195C71.0663 57.1751 70.439 56.7342 69.9714 56.149L67.5405 55.8489Z" fill="#FFC022"/>
<path d="M47.7324 53.7418C47.7324 58.3087 57.4865 62.0152 69.5094 62.0152C81.5323 62.0152 91.2864 58.3087 91.2864 53.7418V49.8301H47.7324V53.7418Z" fill="#FF931E"/>
<path d="M67.4424 51.8427V61.9819C68.1261 61.9819 68.8149 62.0169 69.5138 62.0169V51.8427H67.4424Z" fill="#D17918"/>
<path d="M63.2393 51.8427V61.6668C64.3703 61.7968 65.5318 61.8902 66.7236 61.9469V51.8427H63.2393Z" fill="#D17918"/>
<path d="M62.3787 61.5605V49.8505H47.7324V53.7422C47.7324 57.3637 53.8553 60.435 62.3787 61.5605Z" fill="#D17918"/>
<path d="M77.2764 51.8427V61.4767L77.9854 61.3717V51.8427H77.2764Z" fill="#D17918"/>
<path d="M74.5635 61.7918L75.2725 61.7218V51.8427H74.5635V61.7918Z" fill="#D17918"/>
<path d="M71.1396 51.8427V61.9919L72.1525 61.9569V51.8427H71.1396Z" fill="#D17918"/>
<path d="M69.5143 58.1092C57.4863 58.1092 47.7373 54.4027 47.7373 49.8307C47.7373 45.2588 57.4914 41.5573 69.5143 41.5573C81.5372 41.5573 91.2913 45.2638 91.2913 49.8307C91.2913 54.3977 81.5473 58.1092 69.5143 58.1092Z" fill="#FF931E"/>
<path style="mix-blend-mode:multiply" opacity="0.4" d="M81.7756 56.6697C81.1577 56.6697 80.5348 56.7047 79.9018 56.7047C67.8687 56.7047 58.1248 52.9982 58.1248 48.4263C58.1248 45.5851 61.8978 43.079 67.6357 41.5934C56.494 41.9535 47.7275 45.505 47.7275 49.8318C47.7275 54.4038 57.4816 58.1103 69.5045 58.1103C73.6399 58.1409 77.7627 57.6569 81.7756 56.6697Z" fill="url(#paint10_linear_376_2)"/>
<path d="M91.2815 50.0908C90.927 45.6389 81.3198 42.0874 69.5045 42.0874C57.6892 42.0874 48.0972 45.6539 47.7275 50.0908C48.0871 54.5376 57.6892 58.0941 69.5045 58.0941C81.3198 58.0941 90.927 54.5176 91.2815 50.0908ZM69.5045 57.0937C59.7251 57.0937 51.7791 54.0674 51.7791 50.3559C51.7791 46.6443 59.7302 43.618 69.5045 43.618C79.2788 43.618 87.23 46.6443 87.23 50.3559C87.23 54.0674 79.294 57.0837 69.5147 57.0837L69.5045 57.0937Z" fill="#D17918"/>
<path d="M67.5405 48.6851L59.1133 51.0761V52.7368L67.7228 50.1107C68.8103 50.8922 70.0646 51.4175 71.3894 51.6463C71.516 51.6763 71.6477 51.7013 71.7794 51.7213V53.222H74.9041V52.0665C75.5878 52.0965 76.2259 52.1015 76.7729 52.0665V53.187H79.9027V48.7351H76.7729V50.886C76.2665 50.886 75.603 50.886 74.9041 50.886V48.7601H71.7794V50.2607C71.0654 50.018 70.4376 49.5769 69.9714 48.9902L67.5405 48.6851Z" fill="#D17918"/>
<path d="M87.2485 49.8307C87.2485 53.5473 79.2923 56.5686 69.5231 56.5686C59.7538 56.5686 51.7976 53.5673 51.7976 49.8307C51.7976 46.0942 59.7488 43.0979 69.5231 43.0979C79.2974 43.0979 87.2485 46.0992 87.2485 49.8307ZM91.3 49.8307C91.3 45.2638 81.546 41.5573 69.5231 41.5573C57.5002 41.5573 47.7461 45.2638 47.7461 49.8307C47.7461 54.3977 57.5002 58.1092 69.5231 58.1092C81.546 58.1092 91.3 54.4027 91.3 49.8307Z" fill="#FFC022"/>
<path d="M54.1289 49.831C54.1289 46.6097 61.0317 43.9886 69.5146 43.9886C77.9975 43.9886 84.9053 46.6097 84.9053 49.831C84.9053 53.0524 78.0025 55.6785 69.5146 55.6785C61.0266 55.6785 54.1289 53.0574 54.1289 49.831ZM84.2267 49.831C84.2267 46.7497 77.643 44.2437 69.5399 44.2437C61.4368 44.2437 54.8278 46.7447 54.8278 49.831C54.8278 52.9174 61.4115 55.4234 69.5399 55.4234C77.6683 55.4234 84.2267 52.9123 84.2267 49.831V49.831Z" fill="#FFC022"/>
<path d="M67.5405 47.5697L59.1133 49.9657V51.6264L67.7228 49.0003C68.8103 49.7818 70.0646 50.3071 71.3894 50.536L71.7794 50.611V52.1116H74.9041V50.9761C75.5878 51.0011 76.2259 51.0061 76.7729 50.9761V52.0916H79.9027V47.6397H76.7729V49.7906C76.15 49.8138 75.5262 49.8054 74.9041 49.7656V47.6397H71.7794V49.1404C71.0663 48.8959 70.439 48.4551 69.9714 47.8698L67.5405 47.5697Z" fill="#FFC022"/>
<path d="M47.7324 45.4689C47.7324 50.0358 57.4865 53.7424 69.5094 53.7424C81.5323 53.7424 91.2864 50.0358 91.2864 45.4689V41.5573H47.7324V45.4689Z" fill="#FF931E"/>
<path d="M67.4424 43.5682V53.7025C68.1261 53.7275 68.8149 53.7425 69.5138 53.7425V43.5682H67.4424Z" fill="#D17918"/>
<path d="M63.2393 43.5682V53.3924C64.3686 53.5224 65.5284 53.6125 66.7236 53.6725V43.5682H63.2393Z" fill="#D17918"/>
<path d="M62.3787 53.2878V41.5729H47.7324V45.4695C47.7324 49.086 53.8553 52.1623 62.3787 53.2878Z" fill="#D17918"/>
<path d="M77.2764 43.5682V53.1973L77.9854 53.0923V43.5883L77.2764 43.5682Z" fill="#D17918"/>
<path d="M74.5635 53.5174L75.2725 53.4474V43.5682H74.5635V53.5174Z" fill="#D17918"/>
<path d="M71.1396 43.5682V53.7175L72.1525 53.6775V43.5682H71.1396Z" fill="#D17918"/>
<path d="M69.5143 49.8313C57.4863 49.8313 47.7373 46.1298 47.7373 41.5578C47.7373 36.9859 57.4914 33.2844 69.5143 33.2844C81.5372 33.2844 91.2913 36.9859 91.2913 41.5578C91.2913 46.1298 81.5473 49.8313 69.5143 49.8313Z" fill="#FF931E"/>
<path style="mix-blend-mode:multiply" opacity="0.4" d="M81.7756 48.3956C81.1577 48.3956 80.5348 48.4256 79.9018 48.4256C67.8687 48.4256 58.1248 44.724 58.1248 40.1521C58.1248 37.3109 61.8978 34.8048 67.6357 33.3142C56.494 33.6744 47.7275 37.2259 47.7275 41.5577C47.7275 46.1296 57.4816 49.8312 69.5045 49.8312C73.6397 49.8632 77.7625 49.3809 81.7756 48.3956V48.3956Z" fill="url(#paint11_linear_376_2)"/>
<path d="M91.2815 41.8116C90.927 37.3648 81.3198 33.8083 69.5045 33.8083C57.6892 33.8083 48.0972 37.3798 47.7275 41.8116C48.0871 46.2635 57.6892 49.815 69.5045 49.815C81.3198 49.815 90.927 46.2635 91.2815 41.8116ZM69.5045 48.8146C59.7251 48.8146 51.7791 45.8133 51.7791 42.0818C51.7791 38.3502 59.7302 35.3439 69.5045 35.3439C79.2788 35.3439 87.23 38.3452 87.23 42.0818C87.23 45.8183 79.294 48.8046 69.5147 48.8046L69.5045 48.8146Z" fill="#D17918"/>
<path d="M67.5405 40.4074L59.1133 42.8034V44.4641L67.7228 41.838C68.8103 42.6195 70.0646 43.1448 71.3894 43.3737C71.516 43.4037 71.6477 43.4237 71.7794 43.4487V44.9493H74.9041V43.8138C75.5878 43.8439 76.2259 43.8439 76.7729 43.8138V44.9293H79.9027V40.4824H76.7729V42.6283C76.15 42.6515 75.5262 42.6431 74.9041 42.6033V40.4824H71.7794V41.9831C71.0654 41.7404 70.4376 41.2992 69.9714 40.7125L67.5405 40.4074Z" fill="#D17918"/>
<path d="M87.2485 41.5578C87.2485 45.2744 79.2923 48.2957 69.5231 48.2957C59.7538 48.2957 51.7976 45.2944 51.7976 41.5578C51.7976 37.8213 59.7488 34.82 69.5231 34.82C79.2974 34.82 87.2485 37.8463 87.2485 41.5578ZM91.3 41.5578C91.3 36.9859 81.546 33.2844 69.5231 33.2844C57.5002 33.2844 47.7461 36.9859 47.7461 41.5578C47.7461 46.1298 57.5002 49.8313 69.5231 49.8313C81.546 49.8313 91.3 46.1298 91.3 41.5578Z" fill="#FFC022"/>
<path d="M54.1289 41.5569C54.1289 38.3356 61.0317 35.7095 69.5146 35.7095C77.9975 35.7095 84.9053 38.3356 84.9053 41.5569C84.9053 44.7783 78.0025 47.4044 69.5146 47.4044C61.0266 47.4044 54.1289 44.7783 54.1289 41.5569ZM84.2267 41.5569C84.2267 38.4756 77.643 35.9696 69.5399 35.9696C61.4368 35.9696 54.8278 38.4706 54.8278 41.5569C54.8278 44.6432 61.4115 47.1443 69.5399 47.1443C77.6683 47.1443 84.2267 44.6382 84.2267 41.5569V41.5569Z" fill="#FFC022"/>
<path d="M67.5405 39.2969L59.1133 41.6879V43.3536L67.7228 40.7225C68.8092 41.506 70.0639 42.0315 71.3894 42.2581L71.7794 42.3381V43.8388H74.9041V42.6983C75.5878 42.7283 76.2259 42.7333 76.7729 42.6983V43.8188H79.9027V39.3669H76.7729V41.5128C76.2665 41.5128 75.603 41.5128 74.9041 41.4878V39.3619H71.7794V40.8625C71.0645 40.6217 70.4362 40.1801 69.9714 39.592L67.5405 39.2969Z" fill="#FFC022"/>
<path d="M47.7324 37.191C47.7324 41.7629 57.4865 45.4695 69.5094 45.4695C81.5323 45.4695 91.2864 41.7629 91.2864 37.191V33.2844H47.7324V37.191Z" fill="#FF931E"/>
<path d="M67.4424 35.2906V45.4299C68.1261 45.4549 68.8149 45.4699 69.5138 45.4699V35.2906H67.4424Z" fill="#D17918"/>
<path d="M63.2393 35.2906V45.1198C64.3703 45.2465 65.5318 45.3399 66.7236 45.3999V35.2906H63.2393Z" fill="#D17918"/>
<path d="M62.3787 45.0134V33.2985H47.7324V37.1902C47.7324 40.8117 53.8553 43.888 62.3787 45.0134Z" fill="#D17918"/>
<path d="M77.2764 35.2906V44.9247L77.9854 44.8197V35.2906H77.2764Z" fill="#D17918"/>
<path d="M74.5635 45.2399L75.2725 45.1748V35.2906H74.5635V45.2399Z" fill="#D17918"/>
<path d="M71.1396 35.2906V45.4399L72.1525 45.4049V35.2906H71.1396Z" fill="#D17918"/>
<path d="M69.5143 41.5572C57.4863 41.5572 47.7373 37.8507 47.7373 33.2837C47.7373 28.7168 57.466 25.0052 69.5143 25.0052C81.5625 25.0052 91.2913 28.7118 91.2913 33.2837C91.2913 37.8557 81.5473 41.5572 69.5143 41.5572Z" fill="#FF931E"/>
<path style="mix-blend-mode:multiply" opacity="0.4" d="M81.7756 40.1161C81.1577 40.1161 80.5348 40.1511 79.9018 40.1511C67.8687 40.1511 58.1248 36.4445 58.1248 31.8776C58.1248 29.0364 61.8978 26.5304 67.6357 25.0397C56.494 25.3999 47.7275 28.9514 47.7275 33.2832C47.7275 37.8501 57.4816 41.5567 69.5045 41.5567C73.64 41.5897 77.7632 41.1057 81.7756 40.1161V40.1161Z" fill="url(#paint12_linear_376_2)"/>
<path d="M91.2815 33.5388C90.927 29.0869 81.3198 25.5354 69.5045 25.5354C57.6892 25.5354 48.0972 29.1019 47.7275 33.5388C48.0871 37.9907 57.6892 41.5422 69.5045 41.5422C81.3198 41.5422 90.927 38.0107 91.2815 33.5388ZM69.5045 40.5417C59.7251 40.5417 51.7791 37.5405 51.7791 33.8039C51.7791 30.0673 59.7302 27.0711 69.5045 27.0711C79.2788 27.0711 87.23 30.0723 87.23 33.8039C87.23 37.5355 79.294 40.5117 69.5147 40.5117L69.5045 40.5417Z" fill="#D17918"/>
<path d="M67.5405 32.133L59.1133 34.509V36.1747L67.7228 33.5486C68.8103 34.3302 70.0646 34.8555 71.3894 35.0843L71.7794 35.1593V36.6599H74.9041V35.5094C75.5878 35.5395 76.2259 35.5445 76.7729 35.5345V36.6499H79.9027V32.1981H76.7729V34.349C76.15 34.3721 75.5262 34.3638 74.9041 34.324V32.1981H71.7794V33.6987C71.0658 33.4579 70.4379 33.0184 69.9714 32.4332L67.5405 32.133Z" fill="#D17918"/>
<path d="M87.2485 33.2837C87.2485 36.9953 79.2923 40.0166 69.5231 40.0166C59.7538 40.0166 51.7976 37.0153 51.7976 33.2837C51.7976 29.5522 59.7488 26.5459 69.5231 26.5459C79.2974 26.5459 87.2485 29.5472 87.2485 33.2837ZM91.3 33.2837C91.3 28.7118 81.546 25.0052 69.5231 25.0052C57.5002 25.0052 47.7461 28.7118 47.7461 33.2837C47.7461 37.8557 57.5002 41.5572 69.5231 41.5572C81.546 41.5572 91.3 37.8507 91.3 33.2837Z" fill="#FFC022"/>
<path d="M54.1289 33.284C54.1289 30.0577 61.0317 27.4366 69.5146 27.4366C77.9975 27.4366 84.9053 30.0577 84.9053 33.284C84.9053 36.5104 78.0025 39.1265 69.5146 39.1265C61.0266 39.1265 54.1289 36.5104 54.1289 33.284ZM84.2267 33.284C84.2267 30.2027 77.643 27.6917 69.5399 27.6917C61.4368 27.6917 54.8278 30.1927 54.8278 33.284C54.8278 36.3753 61.4115 38.8714 69.5399 38.8714C77.6683 38.8714 84.2267 36.3653 84.2267 33.284V33.284Z" fill="#FFC022"/>
<path d="M67.5405 31.0083L59.1133 33.3993V35.06L67.7228 32.4339C68.8103 33.2155 70.0646 33.7408 71.3894 33.9696C71.516 33.9996 71.6477 34.0196 71.7794 34.0446V35.5452H74.9041V34.4048C75.5878 34.4348 76.2259 34.4348 76.7729 34.4048V35.5252H79.9027V31.0734H76.7729V33.2193C76.2665 33.2193 75.603 33.2193 74.9041 33.2193V31.0934H71.7794V32.594C71.0663 32.3496 70.439 31.9087 69.9714 31.3235L67.5405 31.0083Z" fill="#FFC022"/>
<g style="mix-blend-mode:multiply" opacity="0.6">
<path d="M24.2893 35.2199C21.0025 34.4295 16.9763 38.6913 13.9124 45.5142V45.5442C13.9377 45.6342 13.9681 45.7243 13.9984 45.8143C14.0114 45.8519 14.0266 45.8886 14.044 45.9244C14.0941 46.0509 14.1516 46.1745 14.2162 46.2945L14.2517 46.3545C14.3074 46.4596 14.3681 46.5596 14.434 46.6597L14.5251 46.7847C14.5242 46.7964 14.5242 46.8081 14.5251 46.8197L14.4087 46.9848C14.3631 47.0548 14.3226 47.1249 14.2821 47.1949C14.2415 47.2649 14.2112 47.3149 14.1808 47.375C14.1412 47.448 14.1057 47.5232 14.0744 47.6001C14.0491 47.6551 14.0187 47.7151 13.9984 47.7701C13.9669 47.8503 13.9398 47.9321 13.9174 48.0152C13.8952 48.0668 13.8783 48.1204 13.8668 48.1753C13.8434 48.2643 13.8248 48.3545 13.8111 48.4454C13.8111 48.4954 13.8111 48.5405 13.8111 48.5855C13.7909 48.723 13.7807 48.8617 13.7807 49.0007V52.9123C13.7731 53.0406 13.7731 53.1692 13.7807 53.2975C13.7807 53.3375 13.7807 53.3775 13.7807 53.4175C13.7944 53.5085 13.813 53.5986 13.8364 53.6876C13.8452 53.7317 13.8571 53.7752 13.8718 53.8177C13.8972 53.9077 13.9275 53.9978 13.9579 54.0878C13.9709 54.127 13.9861 54.1654 14.0035 54.2028C14.0547 54.3273 14.1121 54.4492 14.1757 54.568L14.2112 54.633C14.2652 54.7331 14.3259 54.8331 14.3935 54.9331L14.4846 55.0632V55.0932L14.3681 55.2583C14.3226 55.3283 14.2821 55.4033 14.2415 55.4734C14.201 55.5434 14.1706 55.5884 14.1402 55.6485C14.0997 55.7227 14.0642 55.7996 14.0339 55.8785C14.0055 55.9339 13.9802 55.9906 13.9579 56.0486C13.9264 56.1271 13.8993 56.2073 13.8769 56.2887C13.8561 56.3408 13.8392 56.3943 13.8263 56.4488C13.8028 56.5395 13.7842 56.6313 13.7705 56.7239C13.7681 56.7689 13.7681 56.814 13.7705 56.859C13.7504 56.9964 13.7402 57.1352 13.7402 57.2741V61.1858C13.7324 61.314 13.7324 61.4427 13.7402 61.5709C13.7402 61.616 13.7402 61.656 13.7402 61.696C13.7539 61.7853 13.7725 61.8738 13.7959 61.9611C13.8053 62.0067 13.8171 62.0518 13.8313 62.0962C13.8566 62.1862 13.887 62.2762 13.9174 62.3613C13.9304 62.4004 13.9456 62.4389 13.963 62.4763C14.0131 62.6013 14.0706 62.7232 14.1352 62.8415C14.1352 62.8665 14.1352 62.8865 14.1706 62.9065C14.2247 63.0065 14.2854 63.1066 14.353 63.2066L14.4441 63.3367L14.6163 63.5718L14.7277 63.7068L14.9354 63.9419L15.0468 64.057C15.1531 64.167 15.2646 64.2771 15.3861 64.3871L15.5178 64.5022L15.7761 64.7173L15.9634 64.8623L16.2015 65.0374L16.4142 65.1875L16.6725 65.3575L16.8953 65.5026L17.3562 65.7777L17.655 65.9378L17.8879 66.0628L18.2171 66.2329L18.445 66.3379L18.8096 66.508L18.9869 66.588C19.4528 66.7931 19.939 66.9882 20.4505 67.1733L20.6075 67.2283L21.114 67.4034L21.2608 67.4484C21.98 67.6835 22.7447 67.8986 23.5449 68.0987C25.097 64.8984 26.3023 61.545 27.1406 58.0945C30.1185 46.5546 28.7815 36.3103 24.2893 35.2199Z" fill="#CCCCCC"/>
</g>
<path d="M6.82129 72.8149C11.126 74.5006 18.2061 66.9075 22.6375 55.8628C27.0688 44.8182 27.1954 34.4938 22.8755 32.8081L19.1937 31.3675L3.14453 71.3843L6.82129 72.8149Z" fill="#FF931E"/>
<path d="M12.3164 54.0179L21.8578 57.7545C22.1312 57.1342 22.3997 56.5039 22.6579 55.8637L13.0811 52.1171L12.3164 54.0179Z" fill="#D17918"/>
<path d="M10.7725 57.8751L20.0201 61.5216C20.5518 60.5212 21.0735 59.5208 21.5647 58.4253L12.0538 54.7037L10.7725 57.8751Z" fill="#D17918"/>
<path d="M19.5985 62.2454L8.5733 57.9336L3.17969 71.3843L6.84126 72.8149C10.2496 74.1504 15.4001 69.6635 19.5985 62.2454Z" fill="#D17918"/>
<path d="M15.9365 45.0135L25.0018 48.56C25.0575 48.3299 25.1132 48.0998 25.1639 47.8697L16.1948 44.3682L15.9365 45.0135Z" fill="#D17918"/>
<path d="M24.3035 51.1415C24.3744 50.9181 24.4403 50.693 24.5011 50.4662L15.2028 46.8246L14.9395 47.4749L24.3035 51.1415Z" fill="#D17918"/>
<path d="M13.6787 50.6315L23.2302 54.3731C23.3467 54.048 23.4631 53.7278 23.5746 53.4077L14.0585 49.6811L13.6787 50.6315Z" fill="#D17918"/>
<path d="M18.9754 54.4232C14.539 65.4728 7.45892 73.061 3.15924 71.3803C-1.14045 69.6996 -1.03916 59.3752 3.39727 48.3256C7.83369 37.276 14.9087 29.6878 19.2084 31.3685C23.508 33.0492 23.4118 43.3735 18.9754 54.4232Z" fill="#FF931E"/>
<path style="mix-blend-mode:multiply" opacity="0.4" d="M22.1462 42.6223C21.9386 43.1976 21.7208 43.7728 21.4879 44.353C17.0565 55.4027 9.97647 62.9909 5.67172 61.3101C2.99771 60.2597 2.03041 55.8779 2.73943 50.0554C-1.02849 60.4298 -0.912011 69.7837 3.16484 71.3794C7.46452 73.0601 14.5446 65.4719 18.981 54.4223C20.533 50.6356 21.5964 46.6712 22.1462 42.6223V42.6223Z" fill="url(#paint13_linear_376_2)"/>
<path d="M19.452 31.4789C15.1321 30.1733 8.23432 37.6765 3.88399 48.516C-0.466344 59.3556 -0.643595 69.4899 3.413 71.4557C7.73294 72.7662 14.6307 65.2631 18.981 54.4235C23.3313 43.584 23.5339 33.4497 19.452 31.4789ZM18.0137 54.0434C14.4129 63.0221 8.6344 69.2147 5.13996 67.8492C1.64551 66.4836 1.73161 58.0601 5.33241 49.0813C8.93321 40.1025 14.7117 33.9149 18.2061 35.2805C21.7006 36.6461 21.6145 45.0646 18.0137 54.0434Z" fill="#D17918"/>
<path d="M9.38012 52.7618L8.5293 61.3805L10.0942 61.9958L10.7982 53.107C11.9364 52.401 12.8933 51.4439 13.5937 50.3108C13.6697 50.2008 13.7406 50.0907 13.8115 49.9807L15.2042 50.5259L16.3589 47.6547L15.2852 47.2345C15.5638 46.6193 15.7917 46.034 15.9942 45.5238L17.0476 45.939L18.1973 43.0678L14.009 41.4271L12.8594 44.2983L14.8851 45.0886C14.7079 45.5888 14.4699 46.1741 14.1711 46.7993L12.1706 46.014L11.0159 48.8852L12.4441 49.4454C11.952 50.0113 11.3048 50.4247 10.5804 50.6359L9.38012 52.7618Z" fill="#D17918"/>
<path d="M17.7243 35.09C21.2188 36.4606 21.1327 44.8791 17.5268 53.8579C13.921 62.8367 8.1526 69.0243 4.65815 67.6587C1.16371 66.2931 1.24474 57.8696 4.8506 48.8908C8.45646 39.9121 14.2248 33.7245 17.7243 35.09V35.09ZM19.2133 31.3685C14.9136 29.6878 7.83354 37.2759 3.40218 48.3256C-1.02918 59.3752 -1.15579 69.6946 3.16415 71.3803C7.4841 73.066 14.5439 65.4728 18.9803 54.4232C23.4167 43.3735 23.5383 33.0542 19.2133 31.3685Z" fill="#FFC022"/>
<path d="M5.51966 65.5225C2.48101 64.337 2.56204 57.019 5.68679 49.2407C8.81153 41.4624 13.8253 36.0751 16.8589 37.2656C19.8925 38.4561 19.8165 45.7692 16.6918 53.5475C13.567 61.3258 8.55324 66.693 5.51966 65.5225ZM16.6107 37.8859C13.7088 36.7504 8.91789 41.8876 5.92988 49.3357C2.94188 56.7839 2.89123 63.7668 5.76782 64.9023C8.6444 66.0378 13.4607 60.9006 16.4487 53.4524C19.4367 46.0043 19.5126 39.0113 16.6107 37.8659V37.8859Z" fill="#FFC022"/>
<path d="M8.34026 52.3577L7.48438 60.9763L9.04928 61.5866L9.75323 52.6978C10.8915 51.9918 11.8484 51.0347 12.5488 49.9017C12.6248 49.7916 12.6957 49.6816 12.7666 49.5715L14.1593 50.1168L15.314 47.2455L14.2403 46.8254C14.5188 46.2101 14.7468 45.6249 14.9493 45.1197L16.0027 45.5298L17.1574 42.6586L12.959 41.0129L11.8094 43.8841L13.8352 44.6745C13.6579 45.1747 13.4199 45.7599 13.1211 46.3852L11.1257 45.5999L9.97101 48.4711L11.3789 49.0163C10.8868 49.5822 10.2396 49.9956 9.51521 50.2068L8.34026 52.3577Z" fill="#FFC022"/>
<g style="mix-blend-mode:multiply" opacity="0.6">
<path d="M77.9865 77.9181C85.811 76.6626 91.3008 73.7213 91.3008 70.2949V66.3833C91.2821 65.5937 91.0108 64.8303 90.526 64.2023C91.0103 63.5722 91.2814 62.8073 91.3008 62.0164V58.1098C91.2821 57.3187 91.0109 56.5537 90.526 55.9239C91.0108 55.2959 91.2821 54.5325 91.3008 53.7429V49.8313C91.2821 49.0418 91.0108 48.2784 90.526 47.6504C91.0108 47.0224 91.2821 46.259 91.3008 45.4695V45.4094C86.829 43.8638 78.493 50.5166 72.1169 60.916C68.197 67.3136 65.8927 73.7113 65.5078 78.4233C65.9096 78.4533 66.3147 78.4783 66.7233 78.4983C67.6399 78.5434 68.5667 78.5684 69.5138 78.5684C70.4608 78.5684 71.2863 78.5434 72.1523 78.5034C73.9618 78.4237 75.7656 78.2483 77.556 77.9781L77.9865 77.9181Z" fill="#CCCCCC"/>
</g>
<path d="M103.152 85.6666C98.8522 87.3473 91.7671 79.7591 87.3358 68.7095C82.9044 57.6598 82.7778 47.3405 87.0977 45.6598L90.7796 44.2192L106.829 84.236L103.152 85.6666Z" fill="#FF931E"/>
<path d="M97.6765 66.8633L88.1351 70.5999C87.8617 69.9846 87.5932 69.3544 87.335 68.7091L96.9118 64.9625L97.6765 66.8633Z" fill="#D17918"/>
<path d="M99.227 70.7204L89.9794 74.3419C89.4426 73.3415 88.926 72.3411 88.4297 71.2456L97.9407 67.524L99.227 70.7204Z" fill="#D17918"/>
<path d="M90.3848 75.0973L101.41 70.7805L106.809 84.2312L103.142 85.6668C99.7438 86.9973 94.5933 82.5304 90.3848 75.0973Z" fill="#D17918"/>
<path d="M94.0555 57.835L84.9902 61.3865C84.9345 61.1564 84.8788 60.9213 84.8281 60.6962L93.7921 57.1948L94.0555 57.835Z" fill="#D17918"/>
<path d="M85.6897 63.9916L85.4922 63.3113L94.7904 59.6747L95.0538 60.325L85.6897 63.9916Z" fill="#D17918"/>
<path d="M96.3199 63.4821L86.7684 67.2187C86.6468 66.8936 86.5304 66.5734 86.4189 66.2533L95.9552 62.5217L96.3199 63.4821Z" fill="#D17918"/>
<path d="M91.0185 67.2679C95.4498 78.3175 102.53 85.9057 106.83 84.225C111.129 82.5443 111.028 72.2199 106.597 61.1703C102.165 50.1207 95.0801 42.5125 90.7804 44.2182C86.4807 45.9239 86.5871 56.2232 91.0185 67.2679Z" fill="#FF931E"/>
<path style="mix-blend-mode:multiply" opacity="0.4" d="M87.8516 55.4677C88.0592 56.043 88.277 56.6182 88.5099 57.2034C92.9464 68.2481 100.026 75.8413 104.326 74.1556C107 73.1101 107.972 68.7233 107.258 62.9058C111.026 73.2802 110.91 82.6292 106.833 84.2248C102.533 85.9055 95.4533 78.3173 91.0219 67.2677C89.4678 63.4814 88.4027 59.5169 87.8516 55.4677Z" fill="url(#paint14_linear_376_2)"/>
<path d="M91.0185 67.2681C95.3688 78.1076 102.261 85.6158 106.581 84.3052C110.633 82.3344 110.461 72.2001 106.11 61.3606C101.76 50.521 94.8674 43.0179 90.5424 44.3284C86.4859 46.2942 86.6682 56.4285 91.0185 67.2681ZM91.7883 48.125C95.2878 46.7594 101.061 52.952 104.662 61.9308C108.263 70.9096 108.354 79.3231 104.854 80.6937C101.355 82.0643 95.5866 75.8717 91.9807 66.8929C88.3749 57.9141 88.2938 49.5156 91.7883 48.125Z" fill="#D17918"/>
<path d="M100.615 65.6126L101.466 74.2312L99.9009 74.8415L99.197 65.9577C98.061 65.2468 97.1048 64.2886 96.4014 63.1566C96.3254 63.0515 96.2596 62.9365 96.1887 62.8264L94.7909 63.3767L93.6413 60.5205L94.7099 60.1003C94.4313 59.485 94.2035 58.9048 94.0009 58.3946L92.9525 58.8048L91.7979 55.9335L95.9861 54.2928L97.1408 57.1641L95.115 57.9594C95.2923 58.4596 95.5303 59.0398 95.8291 59.6651L97.8296 58.8848L98.9792 61.756L97.5561 62.3112C98.0452 62.8792 98.691 63.2946 99.4147 63.5067L100.615 65.6126Z" fill="#D17918"/>
<path d="M92.2734 47.9398C95.7678 46.5692 101.541 52.7618 105.147 61.7406C108.753 70.7193 108.834 79.1329 105.34 80.5034C101.845 81.874 96.0666 75.6814 92.4658 66.7026C88.865 57.7239 88.7739 49.3053 92.2734 47.9398ZM90.7541 44.2182C86.4544 45.8989 86.5607 56.2232 90.9921 67.2679C95.4234 78.3125 102.503 85.9057 106.803 84.225C111.103 82.5443 111.002 72.22 106.57 61.1703C102.139 50.1207 95.0791 42.5125 90.7794 44.2182H90.7541Z" fill="#FFC022"/>
<path d="M93.3011 66.3782C90.1763 58.5849 90.1003 51.2768 93.1339 50.0913C96.1675 48.9058 101.181 54.2781 104.306 62.0663C107.431 69.8546 107.507 77.1627 104.473 78.3532C101.44 79.5437 96.4309 74.1664 93.3011 66.3782ZM93.5441 66.2831C96.5322 73.7312 101.323 78.8684 104.225 77.7329C107.127 76.5975 107.056 69.6095 104.068 62.1614C101.08 54.7132 96.284 49.5761 93.3821 50.7116C90.4802 51.847 90.5561 58.83 93.5441 66.2831Z" fill="#FFC022"/>
<path d="M101.663 65.2019L102.539 73.8205L100.974 74.4308L100.27 65.547C99.1331 64.8375 98.1765 63.879 97.4746 62.7459C97.3986 62.6408 97.3328 62.5258 97.2619 62.4157L95.8641 62.966L94.7094 60.0897L95.7831 59.6696C95.5045 59.0543 95.2766 58.4741 95.0741 57.9639L94.0207 58.374L92.8457 55.5178L97.034 53.8771L98.1887 56.7483L96.1629 57.5437C96.3402 58.0439 96.5782 58.6241 96.877 59.2494L98.8774 58.4691L100.027 61.3403L98.5989 61.8955C99.0909 62.4626 99.738 62.8776 100.463 63.091L101.663 65.2019Z" fill="#FFC022"/>
<path d="M22.45 40.4213L21.5638 38.2004L20.6724 40.4213L18.4238 41.3017L20.6724 42.1771L21.5638 44.403L22.45 42.1771L24.7037 41.3017L22.45 40.4213Z" fill="white"/>
<path d="M86.3778 38.0703L85.4915 35.8444L84.6052 38.0703L82.3516 38.9457L84.6052 39.821L85.4915 42.047L86.3778 39.821L88.6314 38.9457L86.3778 38.0703Z" fill="white"/>
<path d="M107.336 13.2706L106.45 11.0446L105.558 13.2706L103.31 14.1459L105.558 15.0263L106.45 17.2472L107.336 15.0263L109.589 14.1459L107.336 13.2706Z" fill="white"/>
<path d="M53.6522 54.2082L52.7659 51.9823L51.8796 54.2082L49.626 55.0836L51.8796 55.959L52.7659 58.1849L53.6522 55.959L55.9058 55.0836L53.6522 54.2082Z" fill="white"/>
<defs>
<linearGradient id="paint0_linear_376_2" x1="30.8125" y1="49.0254" x2="30.8125" y2="65.5424" gradientUnits="userSpaceOnUse">
<stop stop-color="white"/>
<stop offset="1" stop-color="#D17918"/>
</linearGradient>
<linearGradient id="paint1_linear_376_2" x1="7000.81" y1="6316.47" x2="8125.59" y2="6316.47" gradientUnits="userSpaceOnUse">
<stop stop-color="white"/>
<stop offset="1" stop-color="#D17918"/>
</linearGradient>
<linearGradient id="paint2_linear_376_2" x1="6437.57" y1="6308.24" x2="7562.01" y2="6308.24" gradientUnits="userSpaceOnUse">
<stop stop-color="white"/>
<stop offset="1" stop-color="#D17918"/>
</linearGradient>
<linearGradient id="paint3_linear_376_2" x1="6535.2" y1="4559.37" x2="7659.46" y2="4559.37" gradientUnits="userSpaceOnUse">
<stop stop-color="white"/>
<stop offset="1" stop-color="#D17918"/>
</linearGradient>
<linearGradient id="paint4_linear_376_2" x1="5972.04" y1="4551.05" x2="7096.31" y2="4551.05" gradientUnits="userSpaceOnUse">
<stop stop-color="white"/>
<stop offset="1" stop-color="#D17918"/>
</linearGradient>
<linearGradient id="paint5_linear_376_2" x1="5408.55" y1="4542.79" x2="6532.81" y2="4542.79" gradientUnits="userSpaceOnUse">
<stop stop-color="white"/>
<stop offset="1" stop-color="#D17918"/>
</linearGradient>
<linearGradient id="paint6_linear_376_2" x1="4845.39" y1="4534.56" x2="5969.66" y2="4534.56" gradientUnits="userSpaceOnUse">
<stop stop-color="white"/>
<stop offset="1" stop-color="#D17918"/>
</linearGradient>
<linearGradient id="paint7_linear_376_2" x1="4282.24" y1="4526.23" x2="5406.51" y2="4526.23" gradientUnits="userSpaceOnUse">
<stop stop-color="white"/>
<stop offset="1" stop-color="#D17918"/>
</linearGradient>
<linearGradient id="paint8_linear_376_2" x1="8217.56" y1="5226.59" x2="9342.17" y2="5226.59" gradientUnits="userSpaceOnUse">
<stop stop-color="white"/>
<stop offset="1" stop-color="#D17918"/>
</linearGradient>
<linearGradient id="paint9_linear_376_2" x1="7654.4" y1="5218.34" x2="8778.67" y2="5218.34" gradientUnits="userSpaceOnUse">
<stop stop-color="white"/>
<stop offset="1" stop-color="#D17918"/>
</linearGradient>
<linearGradient id="paint10_linear_376_2" x1="7091.25" y1="5210.01" x2="8215.52" y2="5210.01" gradientUnits="userSpaceOnUse">
<stop stop-color="white"/>
<stop offset="1" stop-color="#D17918"/>
</linearGradient>
<linearGradient id="paint11_linear_376_2" x1="6527.75" y1="5201.77" x2="7652.36" y2="5201.77" gradientUnits="userSpaceOnUse">
<stop stop-color="white"/>
<stop offset="1" stop-color="#D17918"/>
</linearGradient>
<linearGradient id="paint12_linear_376_2" x1="5964.6" y1="5193.52" x2="7088.87" y2="5193.52" gradientUnits="userSpaceOnUse">
<stop stop-color="white"/>
<stop offset="1" stop-color="#D17918"/>
</linearGradient>
<linearGradient id="paint13_linear_376_2" x1="956.184" y1="16852.5" x2="1633.49" y2="17124.3" gradientUnits="userSpaceOnUse">
<stop stop-color="white"/>
<stop offset="1" stop-color="#D17918"/>
</linearGradient>
<linearGradient id="paint14_linear_376_2" x1="-4996.91" y1="17190.5" x2="-5674.46" y2="17463.4" gradientUnits="userSpaceOnUse">
<stop stop-color="white"/>
<stop offset="1" stop-color="#D17918"/>
</linearGradient>
</defs>
</svg>
