<svg width="24" height="21" viewBox="0 0 24 21" fill="none" xmlns="http://www.w3.org/2000/svg">
<path d="M13 11V16.585L14.828 14.757L16.243 16.172L12 20.414L7.75699 16.172L9.17199 14.757L11 16.585V11H13ZM12 2.2216e-08C13.717 8.17698e-05 15.3741 0.631114 16.6562 1.77312C17.9383 2.91512 18.7561 4.48846 18.954 6.194C20.1983 6.53332 21.2837 7.2991 22.0206 8.35753C22.7576 9.41595 23.0991 10.6997 22.9856 11.9844C22.8721 13.2691 22.3107 14.473 21.3995 15.3858C20.4884 16.2986 19.2855 16.8622 18.001 16.978V14.964C18.4612 14.8983 18.9036 14.7416 19.3026 14.503C19.7015 14.2644 20.0489 13.9487 20.3246 13.5744C20.6002 13.2001 20.7985 12.7746 20.9079 12.3228C21.0173 11.8711 21.0356 11.402 20.9617 10.9431C20.8878 10.4841 20.7233 10.0445 20.4777 9.64985C20.2321 9.25519 19.9103 8.91342 19.5312 8.64447C19.1521 8.37552 18.7231 8.18479 18.2695 8.08341C17.8158 7.98203 17.3465 7.97203 16.889 8.054C17.0456 7.32489 17.0371 6.56997 16.8642 5.84455C16.6913 5.11913 16.3583 4.44158 15.8896 3.86153C15.4209 3.28147 14.8284 2.81361 14.1555 2.49219C13.4825 2.17078 12.7462 2.00397 12.0005 2.00397C11.2547 2.00397 10.5184 2.17078 9.84551 2.49219C9.17259 2.81361 8.58008 3.28147 8.11139 3.86153C7.6427 4.44158 7.30969 5.11913 7.13677 5.84455C6.96384 6.56997 6.95537 7.32489 7.11199 8.054C6.19964 7.88267 5.2566 8.08079 4.49033 8.60476C3.72406 9.12874 3.19732 9.93565 3.02599 10.848C2.85466 11.7603 3.05277 12.7034 3.57675 13.4697C4.10072 14.2359 4.90764 14.7627 5.81999 14.934L5.99999 14.964V16.978C4.71544 16.8623 3.51239 16.2989 2.60112 15.3862C1.68985 14.4735 1.12831 13.2696 1.01466 11.9848C0.901007 10.7001 1.24247 9.41628 1.97935 8.35777C2.71624 7.29926 3.80169 6.53339 5.04599 6.194C5.24369 4.48838 6.06139 2.91491 7.34357 1.77287C8.62574 0.63082 10.2829 -0.000136703 12 2.2216e-08Z" fill="#464555"/>
</svg>
