<svg width="14" height="14" viewBox="0 0 14 14" fill="none" xmlns="http://www.w3.org/2000/svg">
<g clip-path="url(#clip0_11_105)">
<path d="M2.63671 3.46154L0.812632 1.63804L1.63805 0.812622L13.1875 12.3626L12.362 13.1875L10.4312 11.2566C9.40526 11.9074 8.21498 12.252 7.00005 12.25C3.85471 12.25 1.23788 9.98671 0.688965 7.00004C0.939815 5.64129 1.62325 4.40006 2.6373 3.46154H2.63671ZM8.6083 9.43371L7.7543 8.57971C7.42766 8.73599 7.06058 8.7871 6.70368 8.726C6.34677 8.66489 6.0176 8.49458 5.76156 8.23853C5.50551 7.98249 5.3352 7.65332 5.27409 7.29641C5.21299 6.9395 5.2641 6.57243 5.42038 6.24579L4.56638 5.39179C4.19522 5.95266 4.02929 6.62457 4.0967 7.29374C4.16411 7.96292 4.46071 8.58823 4.93628 9.0638C5.41186 9.53938 6.03717 9.83598 6.70635 9.90339C7.37552 9.9708 8.04743 9.80487 8.6083 9.43371ZM4.65155 2.19337C5.37896 1.90754 6.17171 1.75004 7.00005 1.75004C10.1454 1.75004 12.7622 4.01337 13.3111 7.00004C13.1324 7.9717 12.7306 8.88863 12.1375 9.67871L9.8858 7.42704C9.95268 6.97648 9.91311 6.51652 9.77026 6.084C9.6274 5.65149 9.38523 5.25845 9.06314 4.93636C8.74106 4.61428 8.34801 4.37211 7.9155 4.22925C7.48299 4.08639 7.02302 4.04682 6.57246 4.11371L4.65155 2.19396V2.19337Z" fill="#4F85C5"/>
</g>
<defs>
<clipPath id="clip0_11_105">
<rect width="14" height="14" fill="white"/>
</clipPath>
</defs>
</svg>
