<svg width="26" height="26" viewBox="0 0 26 26" fill="none" xmlns="http://www.w3.org/2000/svg">
<path d="M20.4999 11C20.2239 11 19.9999 10.776 19.9999 10.5002V3.5003C19.9999 2.67311 19.3269 2.00013 18.4999 2.00013H3.49989C3.22399 2.00013 3 1.77613 3 1.50024C3 1.22418 3.224 1.00018 3.49989 1.00018H18.4999C19.878 1.00018 21 2.12115 21 3.50013V10.5C21 10.776 20.776 11 20.4999 11V11Z" fill="#606060" stroke="#606060" stroke-width="0.8"/>
<path d="M20.4999 22.0002C20.2239 22.0002 19.9999 21.7762 19.9999 21.5001V14.5002C19.9999 14.2242 20.2239 14.0002 20.4999 14.0002C20.776 14.0002 21 14.2242 21 14.5002V21.5001C21 21.7762 20.776 22.0002 20.4999 22.0002Z" fill="#606060" stroke="#606060" stroke-width="0.8"/>
<path d="M22.5001 25.0002H7.50006C6.12194 25.0002 4.99994 23.8792 4.99994 22.5002V4.99994H1.50006C1.224 4.99994 1 4.77595 1 4.50006V3.50011C1 2.12097 2.122 1 3.49994 1C4.87806 1 6.00006 2.12097 6.00006 3.49994V22.4998C6.00006 23.327 6.67304 24 7.50006 24C8.32707 24 9.00006 23.327 9.00006 22.5V21.5C9.00006 21.224 9.22406 21 9.49994 21H24.4999C24.776 21 25 21.224 25 21.5V22.5C25 23.8789 23.878 24.9999 22.5001 24.9999V25.0002ZM9.49891 24.0002H22.5001C23.3271 24.0002 24.0001 23.3272 24.0001 22.5002V22.0002H9.99991V22.5002C9.99991 23.0632 9.81292 23.5822 9.49887 24.0002H9.49891ZM1.99977 4.00009H4.99977V3.50003C4.99977 2.67301 4.32679 2.00003 3.49977 2.00003C2.67276 2.00003 1.99977 2.67301 1.99977 3.50003V4.00009Z" fill="#606060" stroke="#606060" stroke-width="0.8"/>
<path d="M15.4998 18.0003C15.3697 18.0003 15.2418 17.9493 15.1457 17.8543C15.0118 17.7204 14.9647 17.5224 15.0247 17.3424L16.0246 14.3424C16.0486 14.2694 16.0906 14.2015 16.1456 14.1474L21.7316 8.56138C22.4537 7.83731 23.7116 7.84035 24.4326 8.56138C25.1826 9.31237 25.1826 10.5234 24.4387 11.2684L18.8527 16.8544C18.7976 16.9095 18.7306 16.9513 18.6576 16.9754L15.6576 17.9754C15.6059 17.9913 15.5528 18.0003 15.4998 18.0003L15.4998 18.0003ZM16.9368 14.7713L16.2908 16.7093L18.2297 16.0632L23.7317 10.5612C24.0868 10.2072 24.0868 9.62823 23.7317 9.27418C23.3767 8.9191 22.7827 8.92413 22.4386 9.26816L16.9368 14.7713ZM18.4998 16.5003H18.5098H18.4998Z" fill="#606060" stroke="#606060" stroke-width="0.8"/>
<path d="M18.4998 17C18.3717 17 18.2438 16.951 18.1457 16.854L16.1457 14.854C15.9506 14.6589 15.9506 14.3421 16.1457 14.147C16.3407 13.952 16.6576 13.952 16.8526 14.147L18.8527 16.1471C19.0477 16.3421 19.0477 16.659 18.8527 16.854C18.7559 16.9511 18.6279 17 18.4998 17H18.4998Z" fill="#606060" stroke="#606060" stroke-width="0.8"/>
<path d="M15.4998 6.0003H10.4996C10.2237 6.0003 9.99976 5.7763 9.99976 5.50024C9.99976 5.22418 10.2238 5.00018 10.4998 5.00018H15.5C15.7758 5.00018 15.9998 5.22418 15.9998 5.50024C15.9998 5.7763 15.7758 6.0003 15.4998 6.0003V6.0003Z" fill="#606060" stroke="#606060" stroke-width="0.8"/>
<path d="M17.4999 9.0003H8.49994C8.22388 9.0003 7.99988 8.7763 7.99988 8.50024C7.99988 8.22418 8.22388 8.00018 8.49994 8.00018H17.4999C17.776 8.00018 18 8.22418 18 8.50024C18 8.7763 17.776 9.0003 17.4999 9.0003Z" fill="#606060" stroke="#606060" stroke-width="0.8"/>
<path d="M16.5001 12.0003H8.49994C8.22388 12.0003 7.99988 11.7763 7.99988 11.5002C7.99988 11.2242 8.22388 11.0002 8.49994 11.0002H16.5001C16.7761 11.0002 17.0001 11.2242 17.0001 11.5002C17 11.7763 16.776 12.0003 16.5001 12.0003Z" fill="#606060" stroke="#606060" stroke-width="0.8"/>
<path d="M14.4999 15.0003H8.49994C8.22388 15.0003 7.99988 14.7763 7.99988 14.5002C7.99988 14.2242 8.22388 14.0002 8.49994 14.0002H14.4999C14.776 14.0002 15 14.2242 15 14.5002C15 14.7763 14.776 15.0003 14.4999 15.0003Z" fill="#606060" stroke="#606060" stroke-width="0.8"/>
</svg>
