<svg width="26" height="23" viewBox="0 0 26 23" fill="none" xmlns="http://www.w3.org/2000/svg">
<path d="M11.2922 21.2092H11.2904L4.6144 21.2079C4.40726 21.2079 4.2394 21.04 4.23962 20.8327C4.23962 20.6255 4.40748 20.4579 4.61463 20.4579H4.61485L11.2909 20.4592H11.2924C12.7688 20.4592 14.2123 20.0476 15.4666 19.2684L23.7952 14.0925C24.0776 13.9172 24.2434 13.6264 24.2501 13.2945C24.257 12.9623 24.1034 12.665 23.8291 12.4784C23.5144 12.2643 23.1021 12.2561 22.7789 12.4574C21.7829 13.0777 20.4269 13.9311 18.7099 15.0116C17.8648 15.5436 16.9378 16.1271 15.9347 16.7574C15.7595 16.8677 15.5278 16.815 15.4177 16.6396C15.3077 16.4641 15.3601 16.2326 15.5356 16.1226C16.5385 15.4923 17.4653 14.9088 18.3104 14.3771C20.028 13.296 21.3847 12.442 22.3823 11.821C22.9571 11.463 23.6903 11.4777 24.2506 11.8585C24.7321 12.1858 25.012 12.7287 24.9997 13.3105C24.9874 13.8925 24.6849 14.4231 24.1905 14.7302L15.8619 19.9061C14.4887 20.7584 12.9083 21.2093 11.2922 21.2093L11.2922 21.2092Z" fill="#606060" stroke="#606060" stroke-width="0.5"/>
<path d="M14.3584 17.9492H10.3769C10.1698 17.9492 10.0019 17.7813 10.0019 17.5742C10.0019 17.3671 10.1698 17.1992 10.3769 17.1992H14.3584C14.908 17.1992 15.3587 16.7697 15.3843 16.2213C15.3973 15.9425 15.2971 15.6764 15.102 15.472C14.9037 15.2644 14.6256 15.1454 14.3386 15.1454L9.41536 15.1452H9.41202C8.70556 15.139 6.55577 15.1198 5.25662 16.453C5.13497 16.5778 5.02091 16.7131 4.91734 16.8553C4.79524 17.0227 4.56086 17.0595 4.39345 16.9374C4.22604 16.8153 4.18921 16.5809 4.31131 16.4135C4.43608 16.2426 4.57336 16.0796 4.71979 15.9294C5.36019 15.2722 6.22334 14.82 7.28563 14.5854C8.09323 14.407 8.84901 14.3898 9.41735 14.395H14.3388C14.8297 14.395 15.3058 14.5988 15.6446 14.9537C15.9828 15.3079 16.1562 15.7704 16.1337 16.2559C16.0893 17.2055 15.3096 17.9492 14.3585 17.9492L14.3584 17.9492Z" fill="#606060" stroke="#606060" stroke-width="0.5"/>
<path d="M3.98927 22.4572H2C1.44867 22.4572 1 22.0086 1 21.4572V15.3949C1 14.8436 1.44867 14.3949 2 14.3949H3.98927C4.54061 14.3949 4.98928 14.8436 4.98928 15.3949V21.4572C4.98928 22.0088 4.54061 22.4572 3.98927 22.4572ZM2 15.1446C1.86228 15.1446 1.75 15.2569 1.75 15.3946V21.4569C1.75 21.5947 1.86228 21.7069 2 21.7069H3.98927C4.127 21.7069 4.23927 21.5947 4.23927 21.4569V15.3946C4.23927 15.2569 4.127 15.1446 3.98927 15.1446H2Z" fill="#606060" stroke="#606060" stroke-width="0.5"/>
<path d="M14.331 15.1446H9.20532C8.59504 15.1446 8.09863 14.6482 8.09863 14.0379C8.09863 13.4276 8.59506 12.9312 9.20532 12.9312H14.331C14.9413 12.9312 15.4377 13.4276 15.4377 14.0379C15.4377 14.6484 14.941 15.1446 14.331 15.1446ZM9.20532 13.6812C9.00867 13.6812 8.84862 13.8413 8.84862 14.0379C8.84862 14.2346 9.00867 14.3946 9.20532 14.3946H14.331C14.5277 14.3946 14.6877 14.2346 14.6877 14.0379C14.6877 13.8413 14.5277 13.6812 14.331 13.6812H9.20532Z" fill="#606060" stroke="#606060" stroke-width="0.5"/>
<path d="M14.331 13.6806H9.20532C8.59504 13.6806 8.09863 13.1842 8.09863 12.5739C8.09863 11.9637 8.59506 11.4672 9.20532 11.4672H14.331C14.9413 11.4672 15.4377 11.9637 15.4377 12.5739C15.4377 13.1844 14.941 13.6806 14.331 13.6806ZM9.20532 12.2172C9.00867 12.2172 8.84862 12.3773 8.84862 12.5739C8.84862 12.7706 9.00867 12.9306 9.20532 12.9306H14.331C14.5277 12.9306 14.6877 12.7706 14.6877 12.5739C14.6877 12.3773 14.5277 12.2172 14.331 12.2172H9.20532Z" fill="#606060" stroke="#606060" stroke-width="0.5"/>
<path d="M14.331 12.2172H9.20532C8.59504 12.2172 8.09863 11.7207 8.09863 11.1105C8.09863 10.5002 8.59506 10.0038 9.20532 10.0038H14.331C14.9413 10.0038 15.4377 10.5002 15.4377 11.1105C15.4377 11.7207 14.941 12.2172 14.331 12.2172ZM9.20532 10.7536C9.00867 10.7536 8.84862 10.9136 8.84862 11.1103C8.84862 11.3069 9.00867 11.467 9.20532 11.467H14.331C14.5277 11.467 14.6877 11.3069 14.6877 11.1103C14.6877 10.9136 14.5277 10.7536 14.331 10.7536H9.20532Z" fill="#606060" stroke="#606060" stroke-width="0.5"/>
<path d="M14.331 10.7537H9.20532C8.59504 10.7537 8.09863 10.2573 8.09863 9.64704C8.09863 9.03675 8.59506 8.54034 9.20532 8.54034H14.331C14.9413 8.54034 15.4377 9.03678 15.4377 9.64704C15.4377 10.2576 14.941 10.7537 14.331 10.7537ZM9.20532 9.29035C9.00867 9.29035 8.84862 9.45039 8.84862 9.64705C8.84862 9.8437 9.00867 10.0037 9.20532 10.0037H14.331C14.5277 10.0037 14.6877 9.8437 14.6877 9.64705C14.6877 9.45039 14.5277 9.29035 14.331 9.29035H9.20532Z" fill="#606060" stroke="#606060" stroke-width="0.5"/>
<path d="M12.7345 7.69828C12.7139 7.69828 12.6936 7.6965 12.6731 7.69337L11.7681 7.54315L10.8632 7.69337C10.7429 7.71346 10.6204 7.6735 10.5349 7.58667L9.89088 6.9333L9.07076 6.52214C8.96206 6.46767 8.88638 6.36366 8.86808 6.24334L8.72991 5.33619L8.3087 4.52145C8.25289 4.41341 8.25289 4.28506 8.3087 4.17703L8.72991 3.36205L8.86808 2.45491C8.88638 2.33459 8.96205 2.2308 9.07076 2.17611L9.89088 1.76495L10.5349 1.1118C10.6206 1.02497 10.7429 0.985241 10.8632 1.0051L11.7681 1.15533L12.6731 1.0051C12.7934 0.985015 12.9159 1.02497 13.0014 1.1118L13.6454 1.76495L14.4655 2.17611C14.5742 2.23057 14.6499 2.33459 14.6682 2.45491L14.8064 3.36205L15.2276 4.17703C15.2834 4.28506 15.2834 4.41341 15.2276 4.52145L14.8064 5.33619L14.6682 6.24334C14.6499 6.36366 14.5742 6.46745 14.4655 6.52214L13.6454 6.9333L13.0014 7.58667C12.9304 7.65855 12.834 7.69828 12.7345 7.69828V7.69828ZM9.58044 5.93867L10.2824 6.29046C10.319 6.30899 10.3525 6.33309 10.3815 6.36233L10.9327 6.92149L11.707 6.79314C11.7476 6.78644 11.7892 6.78644 11.8298 6.79314L12.6041 6.92149L13.1552 6.36233C13.184 6.33309 13.2175 6.30876 13.2541 6.29046L13.9561 5.93867L14.0742 5.16256C14.0802 5.12215 14.0932 5.08309 14.1119 5.04671L14.4724 4.34916L14.1117 3.65139C14.093 3.61523 14.0802 3.57617 14.074 3.53554L13.9559 2.75942L13.2539 2.40764C13.2173 2.38911 13.1838 2.36501 13.155 2.33576L12.6039 1.77684L11.8296 1.90519C11.7889 1.91188 11.7474 1.91188 11.7068 1.90519L10.9324 1.77684L10.3813 2.33576C10.3525 2.36501 10.3191 2.38934 10.2824 2.40764L9.58044 2.75942L9.46236 3.53554C9.45633 3.57594 9.44338 3.61501 9.42463 3.65139L9.06392 4.34916L9.42441 5.04671C9.44316 5.08287 9.45588 5.12193 9.46213 5.16256L9.58044 5.93867Z" fill="#606060" stroke="#606060" stroke-width="0.5"/>
<path d="M10.691 5.80114C10.5951 5.80114 10.4991 5.76453 10.4259 5.69131C10.2794 5.54488 10.2794 5.30738 10.4259 5.16096L12.5803 3.00649C12.7268 2.86006 12.9643 2.86006 13.1107 3.00649C13.2571 3.15292 13.2571 3.39042 13.1107 3.53685L10.9562 5.69131C10.883 5.76453 10.787 5.80114 10.691 5.80114Z" fill="#606060" stroke="#606060" stroke-width="0.5"/>
<path d="M11.3344 3.49484C11.3344 3.73391 11.1405 3.92788 10.9014 3.92788C10.6621 3.92788 10.4681 3.73391 10.4681 3.49484C10.4681 3.25556 10.6621 3.06158 10.9014 3.06158C11.1405 3.06158 11.3344 3.25556 11.3344 3.49484Z" fill="#606060" stroke="#606060" stroke-width="0.5"/>
<path d="M13.0682 5.20342C13.0682 5.44271 12.8742 5.63646 12.6352 5.63646C12.3959 5.63646 12.2019 5.44271 12.2019 5.20342C12.2019 4.96413 12.3959 4.77039 12.6352 4.77039C12.8742 4.77039 13.0682 4.96413 13.0682 5.20342Z" fill="#606060" stroke="#606060" stroke-width="0.5"/>
</svg>
