<svg width="36" height="36" viewBox="0 0 36 36" fill="none" xmlns="http://www.w3.org/2000/svg">
<rect width="36" height="36" rx="7" fill="#E4ECF3"/>
<path fill-rule="evenodd" clip-rule="evenodd" d="M8 10C7.44772 10 7 10.4477 7 11V24C7 24.5523 7.44772 25 8 25H28C28.5523 25 29 24.5523 29 24V11C29 10.4477 28.5523 10 28 10H8ZM12.2488 20.9908C13.5244 20.9908 14.615 20.5419 15.5303 19.644V16.8586H12.2294V18.0406H14.2158V18.966C13.7581 19.3966 13.0278 19.6898 12.2878 19.6898C11.6159 19.6898 11.0609 19.4791 10.6227 19.0576C10.1943 18.6361 9.98006 18.1139 9.98006 17.5C9.98006 16.8678 10.204 16.3455 10.6422 15.9332C11.0804 15.5209 11.6354 15.3102 12.3073 15.3102C13.0765 15.3102 13.7289 15.5668 14.2644 16.0707L15.209 15.0995C14.5566 14.449 13.4757 14 12.3073 14C11.2264 14 10.3209 14.3298 9.59057 14.9895C8.86028 15.6492 8.5 16.4921 8.5 17.5092C8.5 18.517 8.85054 19.3508 9.55162 20.0105C10.2624 20.661 11.1583 20.9908 12.2488 20.9908ZM18.9049 21C19.6936 21 20.3266 20.8076 20.8134 20.4228C21.3003 20.038 21.5437 19.5432 21.5437 18.9385C21.5437 18.1872 21.1347 17.6283 20.3168 17.2526C20.1318 17.1702 19.8397 17.051 19.4405 16.8953L18.7296 16.6021C18.3402 16.4188 18.1454 16.199 18.1454 15.9332C18.1454 15.5393 18.496 15.2827 19.0704 15.2827C19.606 15.2827 20.2487 15.5118 20.6479 15.9149L21.4171 14.9254C20.7745 14.3115 19.9857 14.0092 19.051 14.0092C18.3304 14.0092 17.7364 14.2016 17.2788 14.5772C16.8211 14.9529 16.5972 15.4202 16.5972 15.9882C16.5972 16.7029 16.9769 17.2618 17.7364 17.6741C17.9312 17.7749 18.2136 17.9031 18.5836 18.0406C18.5836 18.0406 19.197 18.2605 19.2944 18.3063C19.7326 18.4987 19.9468 18.7369 19.9468 19.0118C19.9468 19.4424 19.5086 19.7356 18.9147 19.7356C18.1746 19.7356 17.4735 19.4058 17.0062 18.7919L16.1785 19.7356C16.7725 20.551 17.7851 21 18.9049 21ZM25.4454 20.8901H23.9849V15.4293H21.9303V14.1191H27.5V15.4293H25.4454V20.8901Z" fill="#003366"/>
</svg>
