<svg width="234" height="70" viewBox="0 0 234 70" fill="none" xmlns="http://www.w3.org/2000/svg">
<path d="M27.0072 29.8813H21.0219C20.0637 29.8813 19.2843 29.1019 19.2843 28.1436C19.2843 27.1854 20.0637 26.406 21.0219 26.406H29.5099C30.0462 26.406 30.4753 25.977 30.4753 25.4406C30.4753 24.9043 30.0462 24.4753 29.5099 24.4753H26.0346C25.0764 24.4753 24.297 23.6958 24.297 22.7376C24.297 21.7794 25.0764 21 26.0346 21H30.6827C32.0413 21 33.3571 21.4863 34.4011 22.3658L51.4128 36.7818C51.8061 37.1107 51.799 37.7114 51.4057 38.0403L34.3868 52.106C33.3571 52.9569 32.0628 53.4217 30.7256 53.4217H23.7249C22.7667 53.4217 21.9873 52.6423 21.9873 51.6841C21.9873 50.7258 22.7667 49.9464 23.7249 49.9464H29.324C29.9604 49.9464 30.4824 49.4316 30.4824 48.788C30.4824 48.1516 29.9676 47.6296 29.324 47.6296H25.8487C24.9978 47.6296 24.3042 46.9359 24.3042 46.085C24.3042 45.234 24.9978 44.5404 25.8487 44.5404H31.2547C32.1057 44.5404 32.7993 43.8468 32.7993 42.9958C32.7993 42.1449 32.1057 41.4513 31.2547 41.4513H29.7102C28.8592 41.4513 28.1656 40.7576 28.1656 39.9067C28.1656 39.0558 28.8592 38.3621 29.7102 38.3621H33.5716C34.208 38.3621 34.73 37.8473 34.73 37.2037C34.73 36.5601 34.2152 36.0453 33.5716 36.0453H24.3113C23.4604 36.0453 22.7667 35.3516 22.7667 34.5007C22.7667 33.6498 23.4604 32.9561 24.3113 32.9561H27.0143C27.8653 32.9561 28.5589 32.2625 28.5589 31.4116C28.5517 30.5749 27.8653 29.8813 27.0072 29.8813Z" fill="#F4F4F4"/>
<path d="M16.3957 29.7739C17.3554 29.7739 18.1334 28.9959 18.1334 28.0362C18.1334 27.0766 17.3554 26.2986 16.3957 26.2986C15.436 26.2986 14.6581 27.0766 14.6581 28.0362C14.6581 28.9959 15.436 29.7739 16.3957 29.7739Z" fill="#F4F4F4"/>
<path d="M21.029 47.6368C21.9887 47.6368 22.7667 46.8588 22.7667 45.8991C22.7667 44.9395 21.9887 44.1615 21.029 44.1615C20.0694 44.1615 19.2914 44.9395 19.2914 45.8991C19.2914 46.8588 20.0694 47.6368 21.029 47.6368Z" fill="#F4F4F4"/>
<path d="M15.5446 32.9131H20.1783C21.0292 32.9131 21.7229 33.6067 21.7229 34.4577C21.7229 35.3086 21.0292 36.0022 20.1783 36.0022H15.5446C14.6936 36.0022 14 35.3086 14 34.4577C14 33.6067 14.6865 32.9131 15.5446 32.9131Z" fill="#F4F4F4"/>
<path d="M20.0635 38.3693H25.4695C26.3204 38.3693 27.0141 39.0629 27.0141 39.9138C27.0141 40.7648 26.3204 41.4584 25.4695 41.4584H20.0635C19.2125 41.4584 18.5189 40.7648 18.5189 39.9138C18.5189 39.0629 19.2125 38.3693 20.0635 38.3693Z" fill="#F4F4F4"/>
<path d="M64.6782 47H66.2949C67.3209 47 67.9116 46.4093 67.9116 45.3833V26.8531C67.9116 25.8271 67.3209 25.2364 66.2949 25.2364H64.6782C63.6522 25.2364 63.0614 25.8271 63.0614 26.8531V45.3833C63.0614 46.4093 63.6522 47 64.6782 47ZM82.7641 29.5891C80.1525 29.5891 78.1937 30.3975 76.577 32.2629L76.3594 31.2991C76.1106 30.3353 75.5199 29.9 74.5561 29.9H73.6855C72.6595 29.9 72.0688 30.4907 72.0688 31.5167V50.9796C72.0688 52.0056 72.6595 52.5964 73.6855 52.5964H75.1779C76.2039 52.5964 76.7946 52.0056 76.7946 50.9796V46.8135C77.9139 47.1244 79.0954 47.3109 80.5255 47.3109C87.6765 47.3109 90.1948 44.4816 90.1948 38.6365C90.1948 32.636 87.4588 29.5891 82.7641 29.5891ZM80.8054 43.2069C79.4995 43.2069 78.1005 43.1136 76.7946 42.7716V36.6778C78.1937 34.6258 79.5928 33.7864 81.2717 33.7864C84.3186 33.7864 85.3757 35.4653 85.3757 38.5122C85.3757 41.8078 83.9766 43.2069 80.8054 43.2069ZM104.018 29.5891C101.406 29.5891 99.4473 30.3975 97.8306 32.2629L97.6129 31.2991C97.3642 30.3353 96.7735 29.9 95.8096 29.9H94.9391C93.9131 29.9 93.3224 30.4907 93.3224 31.5167V50.9796C93.3224 52.0056 93.9131 52.5964 94.9391 52.5964H96.4315C97.4575 52.5964 98.0482 52.0056 98.0482 50.9796V46.8135C99.1675 47.1244 100.349 47.3109 101.779 47.3109C108.93 47.3109 111.448 44.4816 111.448 38.6365C111.448 32.636 108.712 29.5891 104.018 29.5891ZM102.059 43.2069C100.753 43.2069 99.354 43.1136 98.0482 42.7716V36.6778C99.4473 34.6258 100.846 33.7864 102.525 33.7864C105.572 33.7864 106.629 35.4653 106.629 38.5122C106.629 41.8078 105.23 43.2069 102.059 43.2069ZM123.219 47.3109C129.562 47.3109 132.702 44.3262 132.702 38.45C132.702 32.5738 129.562 29.5891 123.219 29.5891C116.846 29.5891 113.705 32.5738 113.705 38.45C113.705 44.3262 116.846 47.3109 123.219 47.3109ZM123.219 43.1758C119.955 43.1758 118.524 41.6835 118.524 38.45C118.524 35.2165 119.955 33.7242 123.219 33.7242C126.484 33.7242 127.883 35.2165 127.883 38.45C127.883 41.6835 126.484 43.1758 123.219 43.1758Z" fill="#F4F4F4"/>
<path d="M161.837 45.1345L154.5 26.5111C154.158 25.6716 153.567 25.2364 152.634 25.2364H148.313C147.38 25.2364 146.789 25.6716 146.447 26.5111L139.048 45.1345C138.612 46.2538 139.11 47 140.322 47H142.126C143.058 47 143.649 46.5958 143.991 45.7253L145.452 41.87H155.433L156.894 45.7253C157.236 46.5958 157.827 47 158.759 47H160.563C161.775 47 162.273 46.2849 161.837 45.1345ZM147.069 37.6727L150.303 29.2471H150.645L153.847 37.6727H147.069ZM179.983 29.5891H179.579C178.771 29.5891 177.994 30.1798 177.403 30.7705C175.6 30.0244 173.548 29.5891 170.998 29.5891C166.055 29.5891 163.288 32.6049 163.288 37.6727C163.288 42.9893 165.651 45.8807 170.345 45.8807C172.646 45.8807 174.822 45.4765 176.563 44.0153V44.948C176.563 47.3731 175.102 48.6167 171.775 48.6167H167.143C166.055 48.6167 165.495 49.2385 165.682 50.3578L165.806 51.104C165.961 52.0678 166.552 52.5964 167.547 52.5964H171.775C178.149 52.5964 181.289 49.9847 181.289 44.948V30.8949C181.289 30.0865 180.823 29.5891 179.983 29.5891ZM171.962 41.8078C168.915 41.8078 168.107 40.3155 168.107 37.6727C168.107 35.1233 169.444 33.662 172.086 33.662C173.89 33.662 175.258 33.9107 176.563 34.4393V39.6936C175.475 40.9995 173.765 41.8078 171.962 41.8078ZM197.852 32.1385L197.727 31.2369C197.572 30.2731 197.012 29.7445 196.017 29.7445H195.582C193.095 29.7445 191.292 30.5218 189.768 32.4184L189.519 31.2991C189.271 30.3353 188.68 29.9 187.716 29.9H186.846C185.82 29.9 185.229 30.4907 185.229 31.5167V45.3833C185.229 46.4093 185.82 47 186.846 47H188.338C189.364 47 189.955 46.4093 189.955 45.3833V36.8333C191.478 34.5325 193.064 33.8796 195.054 33.8796H196.577C197.572 33.8796 198.007 33.2578 197.852 32.1385ZM208.294 47.3109C214.637 47.3109 217.777 44.3262 217.777 38.45C217.777 32.5738 214.637 29.5891 208.294 29.5891C201.921 29.5891 198.78 32.5738 198.78 38.45C198.78 44.3262 201.921 47.3109 208.294 47.3109ZM208.294 43.1758C205.03 43.1758 203.599 41.6835 203.599 38.45C203.599 35.2165 205.03 33.7242 208.294 33.7242C211.559 33.7242 212.958 35.2165 212.958 38.45C212.958 41.6835 211.559 43.1758 208.294 43.1758Z" fill="#F4F4F4"/>
</svg>
