<svg width="34" height="30" viewBox="0 0 34 30" fill="none" xmlns="http://www.w3.org/2000/svg">
<path d="M11.685 7.97864H6.30811C5.44729 7.97864 4.74707 7.27842 4.74707 6.4176C4.74707 5.55678 5.44729 4.85656 6.30811 4.85656H13.9334C14.4152 4.85656 14.8007 4.47112 14.8007 3.98932C14.8007 3.50752 14.4152 3.12208 13.9334 3.12208H10.8114C9.95053 3.12208 9.25031 2.42186 9.25031 1.56104C9.25031 0.700219 9.95053 0 10.8114 0H14.987C16.2075 0 17.3896 0.436834 18.3275 1.22699L33.6102 14.1778C33.9635 14.4733 33.9571 15.013 33.6038 15.3085L18.3146 27.9445C17.3896 28.709 16.2268 29.1266 15.0255 29.1266H8.73639C7.87557 29.1266 7.17535 28.4263 7.17535 27.5655C7.17535 26.7047 7.87557 26.0045 8.73639 26.0045H13.7664C14.3381 26.0045 14.8071 25.5419 14.8071 24.9638C14.8071 24.392 14.3446 23.9231 13.7664 23.9231H10.6443C9.87987 23.9231 9.25674 23.3 9.25674 22.5355C9.25674 21.771 9.87987 21.1479 10.6443 21.1479H15.5009C16.2653 21.1479 16.8885 20.5248 16.8885 19.7603C16.8885 18.9959 16.2653 18.3727 15.5009 18.3727H14.1133C13.3488 18.3727 12.7257 17.7496 12.7257 16.9851C12.7257 16.2207 13.3488 15.5975 14.1133 15.5975H17.5823C18.154 15.5975 18.623 15.135 18.623 14.5569C18.623 13.9787 18.1604 13.5162 17.5823 13.5162H9.26316C8.4987 13.5162 7.87557 12.893 7.87557 12.1286C7.87557 11.3641 8.4987 10.741 9.26316 10.741H11.6914C12.4559 10.741 13.079 10.1179 13.079 9.35338C13.0726 8.60177 12.4559 7.97864 11.685 7.97864Z" fill="#061D61"/>
<path d="M2.15259 7.88227C3.01473 7.88227 3.71363 7.18337 3.71363 6.32123C3.71363 5.45909 3.01473 4.76019 2.15259 4.76019C1.29045 4.76019 0.591553 5.45909 0.591553 6.32123C0.591553 7.18337 1.29045 7.88227 2.15259 7.88227Z" fill="#061D61"/>
<path d="M6.3147 23.9295C7.17684 23.9295 7.87574 23.2306 7.87574 22.3685C7.87574 21.5063 7.17684 20.8074 6.3147 20.8074C5.45256 20.8074 4.75366 21.5063 4.75366 22.3685C4.75366 23.2306 5.45256 23.9295 6.3147 23.9295Z" fill="#061D61"/>
<path d="M1.38759 10.7025H5.55036C6.31482 10.7025 6.93795 11.3256 6.93795 12.09C6.93795 12.8545 6.31482 13.4776 5.55036 13.4776H1.38759C0.623131 13.4776 0 12.8545 0 12.09C0 11.3256 0.616707 10.7025 1.38759 10.7025Z" fill="#061D61"/>
<path d="M5.44692 15.604H10.3035C11.0679 15.604 11.6911 16.2271 11.6911 16.9916C11.6911 17.756 11.0679 18.3792 10.3035 18.3792H5.44692C4.68246 18.3792 4.05933 17.756 4.05933 16.9916C4.05933 16.2271 4.68246 15.604 5.44692 15.604Z" fill="#061D61"/>
</svg>
