<svg width="36" height="36" viewBox="0 0 36 36" fill="none" xmlns="http://www.w3.org/2000/svg">
<rect width="36" height="36" rx="7" fill="#E4ECF3"/>
<path d="M27 22.42V25.956C27.0001 26.2092 26.9042 26.453 26.7316 26.6382C26.559 26.8234 26.3226 26.9363 26.07 26.954C25.633 26.984 25.276 27 25 27C16.163 27 9 19.837 9 11C9 10.724 9.015 10.367 9.046 9.93C9.06372 9.67744 9.17658 9.44101 9.3618 9.26841C9.54703 9.09581 9.79082 8.99989 10.044 9H13.58C13.704 8.99987 13.8237 9.04586 13.9157 9.12902C14.0078 9.21218 14.0656 9.32658 14.078 9.45C14.101 9.68 14.122 9.863 14.142 10.002C14.3407 11.3889 14.748 12.7378 15.35 14.003C15.445 14.203 15.383 14.442 15.203 14.57L13.045 16.112C14.3645 19.1865 16.8145 21.6365 19.889 22.956L21.429 20.802C21.4919 20.714 21.5838 20.6509 21.6885 20.6237C21.7932 20.5964 21.9042 20.6068 22.002 20.653C23.267 21.2539 24.6156 21.6601 26.002 21.858C26.141 21.878 26.324 21.9 26.552 21.922C26.6752 21.9346 26.7894 21.9926 26.8724 22.0846C26.9553 22.1766 27.0012 22.2961 27.001 22.42H27Z" fill="#003366"/>
</svg>
