<svg width="26" height="21" viewBox="0 0 26 21" fill="none" xmlns="http://www.w3.org/2000/svg">
<path d="M24.897 7.10287C24.8311 7.03697 24.7417 6.99994 24.6484 6.99994C24.5552 6.99994 24.4658 7.03697 24.3998 7.10287L22.3674 9.13531L16.9226 3.57574L18.8976 1.60071C18.9304 1.56809 18.9564 1.52932 18.9742 1.48664C18.9919 1.44395 19.0011 1.39818 19.0011 1.35195C19.0012 1.30572 18.9921 1.25993 18.9744 1.21721C18.9568 1.17449 18.9308 1.13567 18.8982 1.10298C18.8655 1.07029 18.8266 1.04437 18.7839 1.0267C18.7412 1.00902 18.6954 0.999953 18.6492 1C18.603 1.00005 18.5572 1.00921 18.5145 1.02697C18.4718 1.04473 18.433 1.07073 18.4004 1.10348L15.7156 3.78828C15.5394 3.9645 15.4027 4.17625 15.3147 4.40944C15.2267 4.64263 15.1895 4.89189 15.2054 5.14061H14.7348C14.3841 5.14075 14.0374 5.21478 13.7173 5.35787C13.3971 5.50097 13.1107 5.70991 12.8768 5.97109L12.8084 6.04744C12.1618 5.7235 11.4533 5.54196 10.7305 5.51508C10.8168 5.2136 10.8209 4.89453 10.7425 4.59092C10.664 4.28731 10.5058 4.0102 10.2842 3.78828L7.59944 1.10348C7.53349 1.03761 7.44408 1.00063 7.35087 1.00066C7.25766 1.00069 7.16827 1.03773 7.10236 1.10364C7.03645 1.16955 6.99941 1.25893 6.99939 1.35214C6.99936 1.44535 7.03634 1.53476 7.10221 1.60071L9.10657 3.60507L3.66185 9.16467L1.60005 7.10287C1.5341 7.037 1.4447 7.00002 1.35148 7.00004C1.25827 7.00007 1.16889 7.03711 1.10298 7.10302C1.03707 7.16893 1.00003 7.25832 1 7.35153C0.999972 7.44474 1.03696 7.53415 1.10283 7.6001L3.35431 9.85157C3.38402 9.90263 3.42648 9.9451 3.47754 9.9748L3.78762 10.2849C4.00961 10.5063 4.28671 10.6644 4.59028 10.7429C4.89384 10.8214 5.21286 10.8173 5.51434 10.7312C5.52318 10.9703 5.54903 11.2085 5.5917 11.444C5.428 11.5192 5.27901 11.623 5.15172 11.7504L4.37993 12.5222C4.16687 12.7353 4.02178 13.0067 3.963 13.3023C3.90422 13.5978 3.93439 13.9041 4.0497 14.1825C4.16501 14.4608 4.36027 14.6988 4.6108 14.8662C4.86133 15.0336 5.15588 15.1229 5.45719 15.1229C5.50461 15.1229 5.55166 15.1205 5.59832 15.1163C5.5786 15.3273 5.60315 15.54 5.67038 15.741C5.73762 15.9419 5.84607 16.1266 5.98878 16.2832C6.13149 16.4399 6.30533 16.565 6.49918 16.6505C6.69302 16.7361 6.90259 16.7803 7.11448 16.7802C7.16191 16.7802 7.20895 16.7778 7.25561 16.7736C7.23591 16.9846 7.26046 17.1973 7.3277 17.3983C7.39494 17.5992 7.50339 17.7839 7.6461 17.9405C7.78881 18.0971 7.96265 18.2222 8.15648 18.3078C8.35032 18.3934 8.55989 18.4376 8.77178 18.4375C8.8192 18.4375 8.86625 18.4351 8.91291 18.4309C8.88418 18.7427 8.95224 19.0558 9.10782 19.3276C9.26341 19.5993 9.49896 19.8165 9.78241 19.9496C10.0659 20.0827 10.3834 20.1252 10.6919 20.0713C11.0004 20.0175 11.2848 19.8699 11.5063 19.6486L12.014 19.141L12.5216 19.6486C12.7347 19.8616 13.0061 20.0067 13.3016 20.0654C13.5971 20.1242 13.9034 20.094 14.1817 19.9787C14.4601 19.8634 14.698 19.6682 14.8654 19.4177C15.0328 19.1672 15.1222 18.8727 15.1223 18.5715C15.1223 18.5242 15.12 18.4774 15.1157 18.4309C15.1621 18.4352 15.2089 18.4375 15.2561 18.4375C15.6602 18.4375 16.0476 18.277 16.3333 17.9913C16.619 17.7055 16.7795 17.3181 16.7796 16.914C16.7796 16.8668 16.7772 16.82 16.773 16.7736C16.8194 16.7778 16.8662 16.7802 16.9134 16.7802C17.3174 16.7802 17.7049 16.6197 17.9906 16.334C18.2763 16.0483 18.4368 15.6608 18.4369 15.2567C18.4369 15.2096 18.4345 15.1628 18.4303 15.1164C18.4767 15.1206 18.5235 15.1229 18.5707 15.1229C18.872 15.1229 19.1665 15.0336 19.4171 14.8662C19.6676 14.6988 19.8629 14.4609 19.9782 14.1825C20.0935 13.9041 20.1237 13.5978 20.0649 13.3023C20.0061 13.0067 19.861 12.7353 19.6479 12.5222L19.2218 12.0961C19.7174 11.7191 20.1406 11.2553 20.4706 10.7272C20.7739 10.8165 21.0956 10.8225 21.402 10.7447C21.7085 10.6669 21.9883 10.5081 22.2122 10.2849L24.897 7.6001C24.963 7.53416 25 7.44473 25 7.35149C25 7.25824 24.963 7.16881 24.897 7.10287V7.10287ZM4.28485 9.78767L4.15908 9.6619L9.60381 4.10231L9.78701 4.28551C9.98453 4.48344 10.0955 4.75165 10.0955 5.03128C10.0955 5.3109 9.98453 5.57911 9.78701 5.77704L5.77639 9.78767C5.57845 9.98518 5.31024 10.0961 5.03062 10.0961C4.75099 10.0961 4.48279 9.98518 4.28485 9.78767V9.78767ZM5.45719 14.4198C5.29495 14.4198 5.13637 14.3717 5.00148 14.2815C4.8666 14.1914 4.76146 14.0633 4.69938 13.9134C4.6373 13.7635 4.62105 13.5986 4.65269 13.4395C4.68434 13.2803 4.76245 13.1342 4.87715 13.0195L5.64895 12.2477C5.72509 12.1713 5.81552 12.1108 5.91508 12.0695C6.01464 12.0281 6.12137 12.0068 6.22917 12.0068C6.33697 12.0067 6.44372 12.0279 6.54333 12.0691C6.64293 12.1103 6.73344 12.1708 6.80966 12.247C6.88589 12.3232 6.94635 12.4137 6.98757 12.5133C7.0288 12.6129 7.04999 12.7197 7.04994 12.8275C7.04988 12.9353 7.02858 13.042 6.98725 13.1416C6.94592 13.2411 6.88537 13.3316 6.80906 13.4077L6.03722 14.1795C5.96123 14.2559 5.87083 14.3165 5.77127 14.3578C5.67171 14.399 5.56495 14.4201 5.45719 14.4198V14.4198ZM7.11448 16.0771C6.95225 16.0771 6.79366 16.029 6.65877 15.9388C6.52388 15.8487 6.41874 15.7206 6.35666 15.5707C6.29457 15.4208 6.27832 15.2559 6.30996 15.0967C6.34159 14.9376 6.4197 14.7914 6.5344 14.6767L7.30624 13.905C7.46017 13.7516 7.66867 13.6655 7.88598 13.6657C8.10329 13.6659 8.31164 13.7523 8.4653 13.906C8.61896 14.0596 8.70538 14.268 8.70557 14.4853C8.70577 14.7026 8.61974 14.9111 8.46636 15.065L7.69452 15.8368C7.61852 15.9132 7.52813 15.9738 7.42857 16.0151C7.329 16.0563 7.22225 16.0774 7.11448 16.0771V16.0771ZM8.77178 17.7344C8.66401 17.7347 8.55726 17.7136 8.45769 17.6723C8.35813 17.6311 8.26774 17.5705 8.19174 17.4941V17.4941C8.03814 17.3401 7.95187 17.1315 7.95186 16.914C7.95185 16.6966 8.0381 16.488 8.1917 16.334L8.96354 15.5622C9.03968 15.4859 9.13012 15.4253 9.22968 15.384C9.32924 15.3426 9.43598 15.3213 9.54379 15.3213C9.6516 15.3212 9.75836 15.3424 9.85797 15.3836C9.95758 15.4248 10.0481 15.4853 10.1243 15.5615C10.2005 15.6378 10.261 15.7283 10.3022 15.8279C10.3434 15.9275 10.3646 16.0343 10.3646 16.1421C10.3645 16.2499 10.3432 16.3566 10.3018 16.4562C10.2605 16.5557 10.1999 16.6462 10.1236 16.7223L9.35181 17.4941C9.27582 17.5705 9.18543 17.6311 9.08586 17.6723C8.9863 17.7136 8.87955 17.7347 8.77178 17.7344V17.7344ZM11.7809 18.3796L11.0092 19.1514C10.8552 19.3048 10.6467 19.391 10.4294 19.3908C10.212 19.3907 10.0036 19.3042 9.84989 19.1506C9.69619 18.9969 9.60978 18.7885 9.60962 18.5711C9.60946 18.3537 9.69557 18.1452 9.84904 17.9913L10.6208 17.2195C10.6969 17.1431 10.7873 17.0825 10.8869 17.0411C10.9865 16.9997 11.0933 16.9783 11.2011 16.9782C11.309 16.9781 11.4158 16.9993 11.5155 17.0405C11.6151 17.0817 11.7057 17.1422 11.782 17.2184C11.8582 17.2947 11.9187 17.3853 11.9599 17.4849C12.0011 17.5846 12.0223 17.6914 12.0222 17.7993C12.0221 17.9071 12.0007 18.0139 11.9593 18.1135C11.9179 18.2131 11.8573 18.3035 11.7809 18.3796L11.7809 18.3796ZM19.391 13.5995C19.391 13.7617 19.3429 13.9203 19.2528 14.0552C19.1626 14.1901 19.0345 14.2953 18.8846 14.3574C18.7347 14.4195 18.5698 14.4357 18.4106 14.404C18.2515 14.3724 18.1053 14.2942 17.9906 14.1795L15.4715 11.6604C15.4389 11.6278 15.4001 11.6018 15.3575 11.5841C15.3148 11.5664 15.2691 11.5573 15.2229 11.5573C15.1767 11.5573 15.131 11.5664 15.0883 11.584C15.0456 11.6017 15.0068 11.6276 14.9742 11.6603C14.9415 11.6929 14.9156 11.7317 14.8979 11.7744C14.8803 11.8171 14.8712 11.8628 14.8712 11.909C14.8712 11.9552 14.8803 12.0009 14.898 12.0436C14.9157 12.0863 14.9416 12.125 14.9743 12.1577L17.4934 14.6767C17.5698 14.7528 17.6305 14.8433 17.6719 14.9428C17.7133 15.0424 17.7347 15.1492 17.7348 15.2571C17.7349 15.3649 17.7137 15.4717 17.6725 15.5714C17.6312 15.671 17.5708 15.7616 17.4945 15.8379C17.4182 15.9141 17.3277 15.9746 17.228 16.0158C17.1284 16.0571 17.0215 16.0782 16.9137 16.0781C16.8058 16.078 16.6991 16.0567 16.5995 16.0152C16.4999 15.9738 16.4095 15.9132 16.3333 15.8368L13.8143 13.3177C13.7484 13.2517 13.6589 13.2147 13.5657 13.2147C13.4724 13.2147 13.383 13.2517 13.3171 13.3177C13.2511 13.3836 13.2141 13.473 13.2141 13.5663C13.2141 13.6595 13.2511 13.749 13.3171 13.8149L15.8361 16.334C15.9124 16.4101 15.973 16.5006 16.0143 16.6001C16.0556 16.6997 16.0769 16.8064 16.077 16.9142C16.0771 17.022 16.0559 17.1287 16.0147 17.2283C15.9734 17.3279 15.913 17.4184 15.8368 17.4947C15.7605 17.5709 15.67 17.6313 15.5704 17.6726C15.4708 17.7138 15.3641 17.735 15.2563 17.7349C15.1485 17.7349 15.0418 17.7136 14.9422 17.6722C14.8427 17.6309 14.7522 17.5704 14.6761 17.4941L12.157 14.975C12.1244 14.9423 12.0856 14.9163 12.043 14.8986C12.0003 14.8808 11.9545 14.8717 11.9083 14.8716C11.8621 14.8716 11.8164 14.8807 11.7737 14.8983C11.731 14.916 11.6922 14.9419 11.6595 14.9745C11.6268 15.0072 11.6009 15.046 11.5832 15.0887C11.5655 15.1314 11.5564 15.1771 11.5564 15.2233C11.5564 15.2695 11.5655 15.3153 11.5833 15.358C11.601 15.4006 11.6269 15.4394 11.6596 15.4721L14.1787 17.9912C14.2549 18.0673 14.3153 18.1577 14.3565 18.2572C14.3978 18.3568 14.419 18.4634 14.419 18.5711C14.4191 18.6789 14.3979 18.7855 14.3567 18.8851C14.3154 18.9846 14.255 19.075 14.1789 19.1512C14.1027 19.2274 14.0123 19.2878 13.9128 19.3291C13.8133 19.3703 13.7066 19.3915 13.5989 19.3916C13.4912 19.3916 13.3845 19.3704 13.285 19.3292C13.1855 19.288 13.095 19.2276 13.0188 19.1514L12.4857 18.6183C12.6324 18.388 12.7146 18.1225 12.7235 17.8495C12.7324 17.5766 12.6679 17.3063 12.5365 17.0669C12.4052 16.8275 12.2119 16.6278 11.9769 16.4886C11.7419 16.3495 11.4739 16.2761 11.2008 16.2761C11.1536 16.2761 11.1069 16.2784 11.0604 16.2827C11.0647 16.2363 11.067 16.1895 11.067 16.1423C11.067 15.7382 10.9065 15.3508 10.6208 15.0651C10.3351 14.7794 9.94761 14.6188 9.54357 14.6188C9.49615 14.6188 9.44909 14.6212 9.40244 14.6254C9.42333 14.4026 9.3948 14.1779 9.31889 13.9674C9.24297 13.7569 9.12154 13.5657 8.96325 13.4075C8.80497 13.2493 8.61372 13.128 8.40316 13.0521C8.19259 12.9763 7.9679 12.9479 7.74509 12.9689C7.76462 12.7623 7.74164 12.5539 7.67757 12.3565C7.61351 12.1591 7.50971 11.9769 7.37257 11.8211C7.23544 11.6654 7.06786 11.5393 6.88017 11.4508C6.69248 11.3622 6.48865 11.313 6.28123 11.3062C6.22436 10.9863 6.20359 10.661 6.21932 10.3365C6.23764 10.3197 6.25586 10.3027 6.27361 10.2849L10.2842 6.27427C10.302 6.2565 10.319 6.23827 10.3359 6.21994C10.4046 6.2167 10.4743 6.21449 10.5451 6.21449C11.1567 6.2148 11.7614 6.34399 12.3198 6.59363L10.0965 9.07859C9.91044 9.2867 9.81107 9.55813 9.8188 9.83718C9.82653 10.1162 9.94077 10.3817 10.1381 10.5792C10.5125 10.9528 11.0198 11.1626 11.5487 11.1626C12.0776 11.1625 12.5849 10.9528 12.9593 10.5792L14.8347 8.70345L15.9051 9.7738C16.7464 10.615 17.5877 11.4563 18.4288 12.2976L18.4298 12.2985L19.1507 13.0194C19.2272 13.0954 19.2877 13.1858 19.329 13.2854C19.3702 13.385 19.3913 13.4917 19.391 13.5995V13.5995ZM19.5043 10.8628C19.2729 11.137 19.0095 11.3825 18.7199 11.5942C17.9474 10.8215 17.1748 10.0489 16.4022 9.27657L15.0832 7.95761C15.0173 7.89169 14.9278 7.85465 14.8346 7.85466C14.7414 7.85467 14.6519 7.89172 14.586 7.95766L12.4621 10.082C12.2197 10.3239 11.8912 10.4597 11.5487 10.4597C11.2062 10.4597 10.8777 10.3239 10.6353 10.082C10.565 10.0116 10.5243 9.91705 10.5215 9.81762C10.5188 9.7182 10.5542 9.62151 10.6206 9.54739L13.4007 6.44003C13.5687 6.2525 13.7743 6.10247 14.0042 5.99973C14.2341 5.89699 14.483 5.84384 14.7348 5.84374H15.3998C15.4824 6.00256 15.589 6.14775 15.7156 6.27427L19.7263 10.2849C19.7653 10.3239 19.8059 10.3605 19.8476 10.395C19.7434 10.5582 19.6287 10.7145 19.5043 10.8628H19.5043ZM21.715 9.78767C21.5171 9.98518 21.2489 10.0961 20.9692 10.0961C20.6896 10.0961 20.4214 9.98518 20.2235 9.78767L16.2129 5.77704C16.0153 5.57911 15.9044 5.3109 15.9044 5.03128C15.9044 4.75165 16.0153 4.48344 16.2129 4.28551L16.4254 4.07298L21.8701 9.63255L21.715 9.78767Z" fill="#606060" stroke="#606060" stroke-width="0.4"/>
</svg>
